<svg height="512" width="512" xmlns="http://www.w3.org/2000/svg"><path d="M483.03 395.041V154.093c0-18.63-15.157-33.788-33.788-33.788h-38.071V72.051c0-18.8-15.295-34.096-34.096-34.096H134.924c-18.8 0-34.096 15.295-34.096 34.096v48.254h-38.07c-18.63 0-33.788 15.157-33.788 33.788v240.948C12.8 396.218 0 409.741 0 426.206v37.837c0 5.523 4.477 10 10 10h492c5.523 0 10-4.477 10-10v-37.837c0-16.465-12.8-29.988-28.97-31.165zm-71.859-254.735h38.071c7.603 0 13.788 6.185 13.788 13.788v189.119h-51.858V140.306zM120.829 72.052c0-7.772 6.323-14.096 14.096-14.096h242.151c7.772 0 14.096 6.323 14.096 14.096v16.063H120.829zm0 36.063h270.343v235.098H120.829V108.115zM48.97 154.094c0-7.603 6.185-13.788 13.788-13.788h38.071v202.907H48.97zm0 209.119h414.06v31.736H48.97zm250.055 51.736l-.451 2.522a9.164 9.164 0 01-9.031 7.562h-67.087a9.164 9.164 0 01-9.031-7.563l-.45-2.522h86.05zM492 454.043H20v-27.837c0-6.208 5.05-11.257 11.257-11.257h161.402l1.077 6.036a29.142 29.142 0 0028.72 24.048h67.087a29.143 29.143 0 0028.72-24.048l1.078-6.037h161.402c6.208 0 11.257 5.05 11.257 11.257z"/><path d="M209.757 207.912c3.608 4.182 9.923 4.646 14.104 1.04 4.182-3.608 4.647-9.922 1.04-14.104l-17.747-20.57a2.927 2.927 0 010-3.802l17.746-20.57c3.607-4.182 3.142-10.496-1.04-14.104-4.182-3.607-10.496-3.142-14.104 1.04l-17.746 20.569c-7.362 8.532-7.362 21.4 0 29.932zm77.342-13.065c-3.607 4.182-3.142 10.496 1.04 14.104s10.497 3.141 14.104-1.04l17.746-20.569c7.362-8.532 7.362-21.4 0-29.932l-17.746-20.57c-3.608-4.182-9.922-4.647-14.104-1.04-4.182 3.608-4.647 9.922-1.04 14.104l17.747 20.57a2.927 2.927 0 010 3.802zm-39.101 22.066c5.43.964 10.627-2.655 11.593-8.099l12.511-70.518c.965-5.438-2.662-10.628-8.099-11.593-5.441-.968-10.629 2.662-11.593 8.099l-12.511 70.518c-.965 5.437 2.661 10.628 8.099 11.593zm-73.948 37.294h163.9c5.523 0 10-4.477 10-10s-4.477-10-10-10h-163.9c-5.523 0-10 4.477-10 10s4.477 10 10 10zm163.9 13.141c-5.523 0-10 4.477-10 10s4.477 10 10 10h.025c5.523 0 9.987-4.477 9.987-10s-4.489-10-10.012-10zm-163.9 20h123.9c5.523 0 10-4.477 10-10s-4.477-10-10-10h-123.9c-5.523 0-10 4.477-10 10s4.477 10 10 10zm163.9 13.14h-163.9c-5.523 0-10 4.477-10 10s4.477 10 10 10h163.9c5.523 0 10-4.477 10-10s-4.477-10-10-10z"/></svg>