<svg width="86" height="86" fill="none" xmlns="http://www.w3.org/2000/svg"><path d="M21.822 9.332c-.949-1.508-.5-3.51 1.074-4.343A43 43 0 0185.582 37.02c.248 1.764-1.112 3.301-2.89 3.416-1.777.115-3.297-1.237-3.568-2.997a36.55 36.55 0 00-52.783-26.972c-1.585.812-3.571.373-4.52-1.135z" fill="#2764FF"/><path d="M12.529 36.517c-1.766-.375-2.908-2.117-2.368-3.839a34.399 34.399 0 0136.74-23.872c1.794.206 2.921 1.957 2.546 3.723-.375 1.765-2.11 2.872-3.908 2.707a27.862 27.862 0 00-28.95 18.81c-.578 1.71-2.295 2.846-4.06 2.47z" fill="#2764FF"/><path d="M21.73 50.564c-1.678.597-3.544-.278-3.927-2.017a25.8 25.8 0 013.04-18.765c.913-1.53 2.96-1.771 4.363-.675 1.404 1.096 1.626 3.114.778 4.68a19.353 19.353 0 00-2.038 12.582c.31 1.754-.538 3.598-2.216 4.195z" fill="#2764FF"/></svg>