<svg height="512" viewBox="0 0 480.063 480.063" width="512" xmlns="http://www.w3.org/2000/svg"><path d="M402.032 424.806v47.257a8 8 0 01-16 0v-47.257c0-36.795-29.775-66.572-66.573-66.571-17.411 0-33.208-8.87-42.259-23.728a8 8 0 012.671-10.994 8 8 0 0110.994 2.671c6.122 10.051 16.811 16.051 28.594 16.051 45.637-.002 82.573 36.93 82.573 82.571zm-139.606-80.193a8 8 0 01-6.113 9.52c-21.054 4.587-42.467-.005-59.516-11.642-16.878 18.087-39.176 15.744-36.191 15.744-36.795-.001-66.573 29.773-66.573 66.571v47.257a8 8 0 01-16 0v-47.257c0-45.636 36.929-82.571 82.571-82.571 18.462 0 33.429-14.875 33.429-33.342v-2.107c-34.919-16.697-59.429-51.784-60.923-92.643-14.37-3.455-25.077-16.317-25.077-31.62V141.05c-.437-20.3 2.577-71.143 39.648-106.877C193.456-9.953 266.864-7.15 320.842 18.835c5.261 2.535 6.06 9.643 1.691 13.324 27.345 6.67 50.925 23.48 66.074 47.538.782 1.239 2.214 3.184 1.84 6.287-.232 1.931-.807 3.565-2.295 5.075-9.75 9.888-15.119 22.991-15.119 36.896v54.57a8 8 0 01-16 0v-54.57c0-16.037 5.479-31.259 15.542-43.487-15.338-21.936-39.268-36.044-66.332-38.942l-14.061-1.506c-8.222-.88-9.835-12.207-2.194-15.352l6.395-2.633C213.097-3 124.032 29.261 124.032 140.963v41.56c0 6.348 3.656 11.865 9 14.636v-51.863c0-30.878 25.122-56 56-56h102c30.878 0 56 25.12 56 55.997v65.503c0 69.574-67.988 122.42-137.17 102.053a48.914 48.914 0 01-4.186 16.336c13.458 9.242 30.453 12.97 47.23 9.314a8.001 8.001 0 019.52 6.114zm-22.394-43.425c50.178 0 91-40.822 91-91v-64.895c0-22.054-17.944-39.997-40-39.997h-102c-22.056 0-40 17.944-40 40v64.892c0 50.178 40.822 91 91 91zm81 137.875h-24a8 8 0 000 16h24a8 8 0 000-16z"/></svg>