<svg height="511pt" viewBox="0 -33 511.932 511" width="511pt" xmlns="http://www.w3.org/2000/svg"><path d="M2.176 157.7a8.543 8.543 0 00-2.125 6.628l28.613 257.887a25.486 25.486 0 0014.004 19.96 8.45 8.45 0 006.23 2.817h409.239c12.886-.023 23.754-9.601 25.398-22.383l28.399-224.007v-.266a29.298 29.298 0 00-.325-3.305 8.454 8.454 0 00-.742-1.465 8.647 8.647 0 00-.785-1.402 9.74 9.74 0 00-1.11-.973 8.216 8.216 0 00-1.46-1.132c-.086 0-.13-.13-.215-.172l-39.668-19.824-26.754-119.465a8.52 8.52 0 00-3.777-5.36 8.522 8.522 0 00-6.461-1.101L221.465 91.105l-88.113-88.14a8.532 8.532 0 00-12.067 0L2.5 121.773a8.532 8.532 0 000 12.067l21.02 21.02H8.535a8.533 8.533 0 00-6.36 2.84zm466.176 248.976l-25.524-229.93 51.414 25.703zm-20.41-246.457l-8.926-4.465a8.352 8.352 0 00-4.993-.656 7.725 7.725 0 00-1.261-.239h-46.024l-57.511-41.082a8.534 8.534 0 00-12.887 3.774l-13.406 33.57-51.2-29.27a8.537 8.537 0 00-8.543.004 8.537 8.537 0 00-4.257 7.403v25.601h-48.895l-8.406-37.328L426.093 62.7zm-90.567-5.36h-37.547l8.356-20.875zm-82.3 0H256v-10.898zM20.601 127.81L127.315 21.09l74.438 74.438-32.195 7.278c-2.22.496-4.145 1.855-5.356 3.777s-1.605 4.25-1.098 6.461l9.438 41.816H47.653zm404.52 44.117l2.69 24.172c-.14.468-.238.945-.292 1.425a8.37 8.37 0 00.855 3.579l10.008 90.289H298.668a8.534 8.534 0 100 17.066H440.32l12.203 109.996a8.549 8.549 0 01-2.14 6.649 8.526 8.526 0 01-6.383 2.824H54.11a8.536 8.536 0 01-8.473-7.598L33.223 308.457h128.91a8.533 8.533 0 100-17.066H31.328L18.066 171.926zm0 0"/><path d="M230.402 342.59c23.563 0 42.664-19.102 42.664-42.664 0-23.567-19.101-42.668-42.664-42.668-23.566 0-42.668 19.101-42.668 42.668.028 23.55 19.114 42.637 42.668 42.664zm0-68.266c14.137 0 25.598 11.461 25.598 25.602 0 14.137-11.46 25.597-25.598 25.597-14.14 0-25.601-11.46-25.601-25.597 0-14.14 11.46-25.602 25.601-25.602zm162.133-136.531c14.137 0 25.598-11.465 25.598-25.602 0-14.136-11.461-25.601-25.598-25.601-14.14 0-25.601 11.465-25.601 25.601 0 14.137 11.46 25.602 25.601 25.602zm0-34.137a8.533 8.533 0 018.531 8.535 8.533 8.533 0 11-8.531-8.535zM135.484 54.957a8.532 8.532 0 00-12.066 0l-68.266 68.27a8.53 8.53 0 003.766 14.39 8.537 8.537 0 008.3-2.328l68.266-68.266a8.532 8.532 0 000-12.066zm25.602 25.602a8.532 8.532 0 00-12.066 0l-42.668 42.668a8.527 8.527 0 00-2.329 8.296 8.536 8.536 0 006.094 6.094 8.537 8.537 0 008.301-2.328l42.668-42.664a8.54 8.54 0 000-12.066zm0 0"/></svg>