<svg width="922" height="358" fill="none" xmlns="http://www.w3.org/2000/svg"><path d="M125.521 354.583c9.501 2.14 15.657-1.114 21.088-3.985 4.904-2.593 8.778-4.641 15.286-3.175 6.508 1.465 8.725 4.885 11.531 9.214 3.108 4.794 6.631 10.227 16.132 12.367 9.501 2.139 15.656-1.115 21.088-3.986 4.904-2.592 8.777-4.641 15.285-3.175 6.507 1.465 8.723 4.885 11.529 9.214 3.108 4.794 6.631 10.227 16.132 12.367 9.5 2.139 15.654-1.115 21.085-3.986 4.903-2.593 8.777-4.641 15.283-3.176 6.507 1.465 8.724 4.884 11.53 9.214 3.108 4.793 6.63 10.227 16.131 12.366 9.501 2.14 15.657-1.114 21.088-3.985 4.904-2.593 8.778-4.641 15.285-3.176 2.127.479 4.365-.823 4.997-2.91.632-2.086-.58-4.166-2.707-4.645-9.5-2.139-15.656 1.115-21.087 3.986-4.904 2.592-8.778 4.64-15.286 3.175-6.507-1.465-8.724-4.885-11.53-9.213-3.107-4.795-6.63-10.228-16.131-12.368-9.5-2.139-15.655 1.116-21.086 3.987-4.903 2.593-8.776 4.64-15.282 3.175-6.508-1.465-8.724-4.885-11.531-9.213-3.107-4.795-6.63-10.228-16.13-12.367-9.502-2.14-15.657 1.114-21.088 3.986-4.904 2.592-8.778 4.64-15.285 3.175-6.509-1.466-8.725-4.886-11.531-9.214-3.108-4.795-6.631-10.228-16.132-12.368-9.502-2.139-15.657 1.115-21.089 3.986-4.904 2.593-8.777 4.641-15.285 3.175-6.509-1.466-8.726-4.885-11.533-9.215-3.109-4.794-6.632-10.227-16.134-12.367-2.127-.479-4.364.824-4.997 2.91-.632 2.087.58 4.167 2.707 4.645 6.509 1.466 8.726 4.886 11.534 9.215 3.108 4.794 6.631 10.228 16.133 12.367zm-9.671 32.008c9.5 2.14 15.656-1.114 21.087-3.985 4.904-2.593 8.778-4.641 15.286-3.175 6.508 1.465 8.725 4.885 11.532 9.214 3.107 4.794 6.63 10.227 16.131 12.367 9.502 2.139 15.657-1.115 21.088-3.986 4.904-2.593 8.777-4.641 15.285-3.175 6.507 1.465 8.724 4.885 11.53 9.214 3.107 4.793 6.63 10.227 16.131 12.366 9.5 2.14 15.655-1.114 21.085-3.986 4.904-2.593 8.777-4.641 15.284-3.175 6.507 1.465 8.723 4.884 11.529 9.213 3.108 4.794 6.631 10.228 16.131 12.367 9.502 2.14 15.657-1.114 21.089-3.985 4.904-2.593 8.777-4.641 15.285-3.176 2.127.479 4.364-.823 4.997-2.91.632-2.086-.58-4.166-2.707-4.645-9.501-2.139-15.657 1.114-21.088 3.985-4.904 2.593-8.778 4.641-15.286 3.176-6.507-1.466-8.723-4.885-11.53-9.214-3.107-4.794-6.63-10.227-16.13-12.367-9.5-2.139-15.656 1.116-21.086 3.987-4.904 2.593-8.776 4.64-15.283 3.175-6.508-1.465-8.724-4.885-11.53-9.213-3.108-4.795-6.63-10.228-16.131-12.368-9.501-2.139-15.656 1.115-21.088 3.986-4.904 2.593-8.778 4.641-15.285 3.175-6.508-1.465-8.725-4.885-11.531-9.213-3.108-4.795-6.631-10.228-16.132-12.368-9.501-2.139-15.657 1.115-21.088 3.986-4.904 2.592-8.778 4.64-15.286 3.175-6.509-1.466-8.726-4.885-11.533-9.215-3.108-4.794-6.631-10.227-16.133-12.367-2.127-.479-4.365.824-4.997 2.91-.633 2.087.58 4.166 2.707 4.645 6.509 1.466 8.726 4.886 11.533 9.215 3.108 4.794 6.631 10.227 16.134 12.367z" fill="#1254FF"/><path d="M-131.681 296.47c9.501 2.139 15.657-1.115 21.088-3.986 4.904-2.592 8.778-4.64 15.286-3.175 6.508 1.466 8.725 4.885 11.531 9.214 3.108 4.794 6.63 10.228 16.132 12.367 9.501 2.14 15.656-1.114 21.088-3.985 4.904-2.593 8.777-4.641 15.285-3.176 6.507 1.466 8.723 4.885 11.53 9.214 3.107 4.794 6.63 10.228 16.131 12.367 9.5 2.14 15.654-1.115 21.085-3.986 4.904-2.593 8.777-4.641 15.283-3.176 6.508 1.466 8.724 4.885 11.53 9.214 3.108 4.794 6.63 10.227 16.131 12.367 9.501 2.14 15.657-1.114 21.088-3.985 4.904-2.593 8.778-4.641 15.286-3.176 2.126.479 4.364-.824 4.996-2.91.633-2.086-.58-4.166-2.707-4.645-9.5-2.14-15.656 1.114-21.087 3.985-4.904 2.593-8.778 4.641-15.286 3.176-6.507-1.466-8.724-4.885-11.53-9.214-3.107-4.794-6.63-10.228-16.13-12.367-9.5-2.139-15.656 1.115-21.087 3.986-4.903 2.593-8.776 4.641-15.282 3.176-6.508-1.466-8.724-4.885-11.53-9.214-3.108-4.794-6.63-10.227-16.131-12.367-9.501-2.14-15.657 1.115-21.088 3.986-4.904 2.592-8.778 4.64-15.285 3.175-6.508-1.466-8.725-4.885-11.531-9.214-3.108-4.794-6.63-10.228-16.132-12.367-9.501-2.14-15.657 1.114-21.089 3.986-4.904 2.592-8.777 4.64-15.285 3.174-6.509-1.465-8.726-4.885-11.533-9.214-3.108-4.794-6.632-10.228-16.134-12.368-2.126-.479-4.364.825-4.996 2.911-.633 2.086.58 4.166 2.707 4.645 6.509 1.466 8.725 4.885 11.533 9.215 3.108 4.794 6.631 10.227 16.133 12.367zm-9.671 32.007c9.501 2.14 15.656-1.114 21.088-3.985 4.904-2.593 8.778-4.641 15.286-3.175 6.507 1.465 8.724 4.885 11.531 9.214 3.108 4.794 6.63 10.227 16.132 12.367 9.5 2.14 15.656-1.115 21.087-3.986 4.904-2.592 8.778-4.641 15.286-3.175 6.507 1.465 8.723 4.885 11.53 9.214 3.107 4.794 6.63 10.227 16.13 12.367 9.5 2.139 15.655-1.115 21.086-3.986 4.903-2.593 8.777-4.641 15.283-3.176 6.507 1.465 8.724 4.885 11.53 9.214 3.107 4.794 6.63 10.227 16.13 12.367 9.502 2.139 15.658-1.115 21.089-3.986 4.904-2.593 8.778-4.641 15.285-3.175 2.127.479 4.365-.824 4.997-2.911.632-2.086-.58-4.166-2.707-4.645-9.5-2.139-15.656 1.115-21.088 3.986-4.904 2.593-8.778 4.641-15.285 3.175-6.508-1.465-8.724-4.885-11.53-9.213-3.108-4.795-6.63-10.228-16.131-12.368-9.5-2.139-15.655 1.116-21.086 3.987-4.903 2.593-8.776 4.641-15.282 3.175-6.508-1.465-8.724-4.885-11.53-9.213-3.108-4.795-6.63-10.228-16.132-12.367-9.5-2.14-15.656 1.114-21.087 3.986-4.904 2.592-8.778 4.64-15.285 3.175-6.509-1.466-8.725-4.886-11.531-9.214-3.109-4.795-6.631-10.228-16.132-12.368-9.502-2.139-15.657 1.115-21.089 3.986-4.904 2.592-8.777 4.641-15.285 3.175-6.509-1.466-8.726-4.885-11.533-9.215-3.109-4.794-6.632-10.227-16.134-12.367-2.127-.479-4.365.824-4.997 2.91-.632 2.087.58 4.166 2.707 4.645 6.509 1.466 8.726 4.886 11.534 9.215 3.108 4.794 6.63 10.228 16.133 12.367zm-9.672 32.009c9.501 2.14 15.656-1.114 21.088-3.985 4.904-2.593 8.778-4.641 15.285-3.176 6.508 1.466 8.725 4.886 11.532 9.214 3.108 4.795 6.63 10.228 16.132 12.368 9.5 2.139 15.656-1.115 21.087-3.986 4.904-2.593 8.778-4.641 15.286-3.175 6.506 1.465 8.723 4.885 11.53 9.213 3.107 4.794 6.63 10.228 16.13 12.367 9.5 2.14 15.655-1.114 21.086-3.986 4.903-2.593 8.777-4.641 15.283-3.175 6.507 1.465 8.723 4.884 11.53 9.213 3.107 4.794 6.63 10.228 16.13 12.367 9.502 2.14 15.657-1.114 21.09-3.986 4.903-2.592 8.777-4.64 15.284-3.175 2.127.479 4.365-.824 4.997-2.91.632-2.086-.58-4.166-2.707-4.645-9.5-2.139-15.656 1.115-21.088 3.985-4.904 2.593-8.778 4.641-15.286 3.176-6.507-1.466-8.723-4.885-11.53-9.214-3.107-4.794-6.63-10.227-16.13-12.367-9.5-2.139-15.655 1.115-21.086 3.987-4.903 2.592-8.776 4.64-15.282 3.175-6.508-1.465-8.725-4.885-11.53-9.214-3.108-4.794-6.631-10.227-16.132-12.367-9.5-2.139-15.656 1.115-21.087 3.986-4.904 2.593-8.778 4.641-15.285 3.175-6.509-1.465-8.725-4.885-11.531-9.214-3.109-4.794-6.631-10.227-16.133-12.367-9.501-2.139-15.657 1.114-21.088 3.985-4.904 2.593-8.777 4.641-15.285 3.176-6.509-1.466-8.726-4.886-11.534-9.215-3.108-4.794-6.631-10.227-16.133-12.367-2.127-.479-4.365.824-4.997 2.91-.632 2.086.58 4.166 2.707 4.645 6.509 1.466 8.726 4.886 11.533 9.215 3.109 4.794 6.631 10.227 16.134 12.367zm582.02-106.112c9.5 2.14 15.656-1.114 21.087-3.985 4.904-2.593 8.778-4.641 15.286-3.175 6.508 1.465 8.725 4.885 11.532 9.214 3.107 4.794 6.63 10.227 16.131 12.367 9.502 2.139 15.657-1.115 21.088-3.986 4.904-2.593 8.777-4.641 15.285-3.175 6.507 1.465 8.724 4.885 11.53 9.214 3.107 4.794 6.63 10.227 16.131 12.367 9.5 2.139 15.655-1.115 21.085-3.986 4.904-2.593 8.777-4.642 15.284-3.176 6.507 1.465 8.723 4.885 11.529 9.214 3.108 4.793 6.631 10.227 16.131 12.366 9.502 2.14 15.657-1.114 21.089-3.985 4.904-2.593 8.777-4.641 15.285-3.175 2.127.479 4.364-.824 4.997-2.911.632-2.086-.58-4.166-2.707-4.645-9.501-2.139-15.657 1.115-21.088 3.986-4.904 2.593-8.778 4.64-15.286 3.175-6.507-1.465-8.723-4.885-11.53-9.213-3.107-4.795-6.63-10.228-16.13-12.368-9.5-2.139-15.656 1.116-21.086 3.987-4.904 2.593-8.776 4.64-15.283 3.175-6.508-1.465-8.724-4.885-11.53-9.213-3.108-4.795-6.63-10.228-16.131-12.368-9.501-2.139-15.656 1.115-21.088 3.987-4.904 2.592-8.778 4.64-15.285 3.174-6.508-1.465-8.725-4.885-11.531-9.213-3.108-4.795-6.631-10.228-16.132-12.368-9.501-2.139-15.657 1.115-21.088 3.986-4.904 2.592-8.778 4.64-15.286 3.175-6.509-1.466-8.725-4.885-11.533-9.215-3.108-4.794-6.632-10.227-16.133-12.367-2.127-.479-4.365.824-4.997 2.91-.633 2.087.58 4.166 2.707 4.645 6.509 1.466 8.726 4.886 11.533 9.215 3.108 4.794 6.631 10.228 16.134 12.367zm-9.673 32.01c9.501 2.139 15.657-1.115 21.088-3.986 4.904-2.593 8.778-4.641 15.286-3.175 6.508 1.465 8.725 4.885 11.531 9.214 3.108 4.794 6.631 10.227 16.132 12.367 9.501 2.139 15.656-1.115 21.088-3.986 4.904-2.593 8.777-4.641 15.285-3.175 6.507 1.465 8.723 4.885 11.529 9.214 3.108 4.793 6.631 10.227 16.132 12.366 9.5 2.14 15.654-1.115 21.085-3.986 4.904-2.593 8.777-4.641 15.284-3.176 6.507 1.466 8.723 4.885 11.529 9.214 3.108 4.794 6.63 10.228 16.131 12.367 9.501 2.14 15.657-1.114 21.088-3.985 4.904-2.593 8.778-4.641 15.286-3.176 2.127.479 4.364-.824 4.997-2.91.632-2.086-.581-4.166-2.707-4.645-9.501-2.14-15.657 1.114-21.088 3.985-4.904 2.593-8.778 4.641-15.286 3.176-6.507-1.466-8.723-4.885-11.53-9.214-3.107-4.794-6.63-10.228-16.131-12.367-9.5-2.139-15.655 1.115-21.086 3.987-4.903 2.593-8.776 4.64-15.282 3.175-6.508-1.465-8.724-4.885-11.53-9.213-3.108-4.795-6.631-10.228-16.131-12.368-9.501-2.139-15.657 1.115-21.088 3.986-4.904 2.593-8.778 4.641-15.285 3.175-6.509-1.465-8.725-4.885-11.531-9.213-3.108-4.795-6.631-10.228-16.132-12.368-9.501-2.139-15.657 1.115-21.089 3.986-4.904 2.592-8.777 4.641-15.285 3.175-6.509-1.466-8.726-4.885-11.533-9.215-3.108-4.794-6.632-10.227-16.134-12.367-2.127-.479-4.364.824-4.997 2.91-.632 2.087.58 4.167 2.707 4.645 6.509 1.466 8.726 4.886 11.534 9.215 3.108 4.794 6.631 10.228 16.133 12.368zm-9.671 32.006c9.5 2.14 15.656-1.114 21.087-3.985 4.904-2.593 8.778-4.641 15.286-3.176 6.508 1.466 8.725 4.886 11.532 9.214 3.107 4.795 6.63 10.228 16.131 12.368 9.502 2.139 15.657-1.115 21.088-3.986 4.904-2.593 8.777-4.641 15.285-3.175 6.507 1.465 8.724 4.884 11.53 9.213 3.107 4.794 6.63 10.228 16.131 12.367 9.5 2.14 15.655-1.115 21.086-3.986 4.903-2.593 8.776-4.641 15.283-3.176 6.507 1.466 8.723 4.885 11.529 9.214 3.108 4.794 6.631 10.228 16.131 12.367 9.502 2.14 15.657-1.114 21.089-3.986 4.904-2.592 8.778-4.64 15.285-3.175 2.127.479 4.364-.824 4.997-2.91.632-2.087-.58-4.166-2.707-4.645-9.501-2.14-15.657 1.114-21.088 3.985-4.904 2.593-8.778 4.641-15.286 3.176-6.507-1.466-8.723-4.885-11.529-9.214-3.108-4.794-6.631-10.227-16.131-12.367-9.5-2.139-15.655 1.115-21.086 3.987-4.904 2.592-8.776 4.64-15.283 3.175-6.508-1.465-8.724-4.885-11.53-9.214-3.108-4.794-6.63-10.227-16.131-12.367-9.501-2.139-15.656 1.115-21.088 3.986-4.904 2.593-8.778 4.641-15.285 3.175-6.508-1.465-8.725-4.885-11.531-9.214-3.108-4.794-6.631-10.227-16.132-12.367-9.501-2.139-15.657 1.114-21.088 3.985-4.904 2.593-8.778 4.641-15.286 3.176-6.509-1.466-8.725-4.885-11.533-9.215-3.108-4.794-6.632-10.227-16.133-12.367-2.127-.479-4.365.824-4.997 2.91-.632 2.086.58 4.166 2.707 4.645 6.509 1.466 8.726 4.886 11.533 9.215 3.108 4.794 6.631 10.227 16.134 12.367zm-9.672 32.008c9.5 2.139 15.656-1.115 21.087-3.985 4.904-2.593 8.779-4.641 15.286-3.176 6.508 1.466 8.725 4.885 11.532 9.214 3.107 4.794 6.63 10.228 16.131 12.367 9.502 2.14 15.657-1.114 21.088-3.986 4.904-2.592 8.778-4.64 15.285-3.175 6.507 1.466 8.724 4.885 11.53 9.214 3.107 4.794 6.63 10.228 16.131 12.367 9.5 2.139 15.655-1.115 21.086-3.987 4.903-2.592 8.776-4.64 15.283-3.175 6.507 1.465 8.723 4.885 11.53 9.213 3.107 4.795 6.63 10.228 16.13 12.368 9.502 2.139 15.657-1.115 21.089-3.986 4.904-2.592 8.778-4.64 15.285-3.175 2.127.479 4.365-.824 4.997-2.91.632-2.087-.58-4.166-2.707-4.645-9.501-2.14-15.657 1.114-21.088 3.985-4.904 2.593-8.778 4.641-15.286 3.175-6.507-1.465-8.723-4.884-11.529-9.213-3.108-4.794-6.631-10.228-16.131-12.367-9.5-2.139-15.655 1.115-21.086 3.986-4.903 2.593-8.776 4.641-15.283 3.176-6.507-1.466-8.724-4.885-11.53-9.214-3.107-4.794-6.63-10.228-16.131-12.367-9.501-2.14-15.656 1.115-21.088 3.985-4.904 2.593-8.778 4.641-15.285 3.176-6.508-1.466-8.724-4.885-11.531-9.214-3.108-4.794-6.631-10.228-16.132-12.367-9.501-2.14-15.657 1.114-21.088 3.985-4.904 2.593-8.778 4.641-15.285 3.176-6.509-1.466-8.726-4.886-11.534-9.215-3.108-4.794-6.631-10.228-16.133-12.367-2.127-.479-4.365.823-4.997 2.91-.632 2.086.58 4.166 2.707 4.645 6.509 1.466 8.726 4.885 11.533 9.215 3.108 4.794 6.631 10.227 16.134 12.367zm-9.672 32.008c9.501 2.139 15.656-1.115 21.088-3.986 4.904-2.593 8.778-4.641 15.286-3.175 6.507 1.465 8.724 4.885 11.531 9.214 3.108 4.794 6.63 10.228 16.132 12.367 9.501 2.14 15.656-1.114 21.088-3.986 4.903-2.592 8.777-4.64 15.285-3.175 6.507 1.465 8.723 4.885 11.529 9.213 3.108 4.795 6.631 10.228 16.132 12.368 9.5 2.139 15.654-1.115 21.085-3.987 4.903-2.592 8.777-4.64 15.283-3.175 6.507 1.465 8.724 4.885 11.53 9.213 3.107 4.795 6.63 10.228 16.131 12.368 9.501 2.139 15.657-1.115 21.088-3.986 4.904-2.593 8.778-4.641 15.285-3.175 2.127.479 4.365-.825 4.997-2.911.633-2.087-.58-4.166-2.707-4.645-9.5-2.139-15.656 1.115-21.087 3.986-4.905 2.593-8.779 4.641-15.286 3.175-6.507-1.465-8.724-4.885-11.53-9.214-3.108-4.794-6.63-10.227-16.131-12.366-9.5-2.14-15.655 1.114-21.086 3.986-4.903 2.592-8.776 4.641-15.282 3.176-6.508-1.466-8.724-4.885-11.53-9.214-3.108-4.794-6.631-10.228-16.131-12.367-9.502-2.14-15.657 1.114-21.088 3.985-4.904 2.593-8.778 4.641-15.285 3.176-6.509-1.466-8.725-4.885-11.531-9.214-3.108-4.794-6.631-10.228-16.132-12.367-9.502-2.14-15.657 1.114-21.089 3.985-4.904 2.593-8.777 4.641-15.285 3.175-6.509-1.465-8.726-4.885-11.533-9.214-3.109-4.794-6.632-10.228-16.134-12.368-2.127-.479-4.364.823-4.997 2.911-.632 2.086.58 4.166 2.707 4.645 6.509 1.465 8.726 4.885 11.534 9.214 3.108 4.794 6.63 10.228 16.133 12.368z" fill="#1254FF"/><path d="M173.793 196.261c9.501 2.139 15.657-1.115 21.088-3.986 4.904-2.593 8.778-4.641 15.286-3.175 6.508 1.465 8.725 4.885 11.532 9.214 3.107 4.794 6.63 10.227 16.131 12.367 9.501 2.14 15.656-1.114 21.088-3.985 4.904-2.593 8.777-4.641 15.285-3.176 6.507 1.465 8.723 4.885 11.53 9.214 3.107 4.794 6.63 10.227 16.131 12.367 9.5 2.139 15.655-1.115 21.085-3.986 4.904-2.593 8.777-4.641 15.284-3.176 6.507 1.465 8.723 4.885 11.529 9.214 3.108 4.794 6.631 10.227 16.131 12.367 9.501 2.139 15.657-1.115 21.088-3.986 4.905-2.593 8.778-4.641 15.286-3.175 2.127.479 4.364-.824 4.997-2.91.632-2.086-.581-4.167-2.707-4.646-9.501-2.139-15.657 1.115-21.088 3.986-4.904 2.593-8.778 4.641-15.286 3.175-6.507-1.465-8.723-4.885-11.53-9.213-3.107-4.794-6.63-10.228-16.13-12.367-9.5-2.14-15.656 1.115-21.086 3.986-4.904 2.593-8.776 4.641-15.283 3.176-6.508-1.466-8.724-4.885-11.53-9.214-3.108-4.794-6.63-10.228-16.131-12.367-9.501-2.14-15.656 1.114-21.088 3.986-4.904 2.592-8.778 4.64-15.285 3.175-6.508-1.466-8.725-4.885-11.531-9.214-3.108-4.795-6.631-10.228-16.132-12.368-9.501-2.139-15.657 1.115-21.089 3.986-4.903 2.593-8.777 4.641-15.285 3.175-6.509-1.466-8.726-4.885-11.533-9.215-3.108-4.794-6.632-10.227-16.134-12.367-2.126-.479-4.364.824-4.996 2.91-.633 2.087.58 4.166 2.707 4.645 6.509 1.466 8.726 4.886 11.533 9.215 3.108 4.794 6.631 10.228 16.133 12.368zm-9.671 32.007c9.5 2.14 15.656-1.114 21.088-3.985 4.904-2.593 8.778-4.641 15.285-3.175 6.508 1.465 8.725 4.885 11.532 9.214 3.107 4.794 6.63 10.227 16.131 12.367 9.502 2.139 15.657-1.115 21.088-3.986 4.904-2.593 8.778-4.641 15.285-3.175 6.507 1.465 8.724 4.885 11.53 9.214 3.108 4.794 6.63 10.227 16.132 12.367 9.5 2.139 15.654-1.115 21.085-3.986 4.903-2.593 8.777-4.642 15.283-3.176 6.507 1.465 8.723 4.884 11.53 9.214 3.107 4.793 6.63 10.227 16.131 12.366 9.501 2.14 15.657-1.114 21.088-3.985 4.904-2.593 8.777-4.641 15.285-3.175 2.127.478 4.364-.824 4.997-2.911.632-2.086-.58-4.166-2.707-4.645-9.501-2.139-15.656 1.115-21.088 3.986-4.904 2.592-8.778 4.64-15.286 3.175-6.507-1.465-8.723-4.885-11.529-9.213-3.108-4.795-6.631-10.228-16.131-12.368-9.5-2.139-15.655 1.116-21.086 3.987-4.903 2.593-8.776 4.64-15.283 3.175-6.507-1.465-8.724-4.885-11.53-9.213-3.107-4.795-6.63-10.228-16.131-12.368-9.501-2.139-15.656 1.115-21.088 3.987-4.903 2.592-8.778 4.64-15.285 3.174-6.508-1.465-8.724-4.885-11.531-9.213-3.108-4.795-6.63-10.228-16.132-12.368-9.501-2.139-15.657 1.115-21.088 3.986-4.904 2.592-8.778 4.64-15.285 3.175-6.509-1.466-8.726-4.885-11.534-9.215-3.108-4.794-6.631-10.227-16.133-12.367-2.127-.479-4.365.824-4.997 2.91-.632 2.087.58 4.166 2.707 4.645 6.509 1.466 8.726 4.886 11.533 9.215 3.109 4.794 6.631 10.227 16.134 12.367zm-9.672 32.009c9.501 2.139 15.656-1.115 21.088-3.986 4.904-2.593 8.778-4.64 15.286-3.175 6.507 1.465 8.724 4.885 11.531 9.214 3.108 4.794 6.63 10.228 16.132 12.367 9.501 2.14 15.656-1.114 21.088-3.986 4.903-2.592 8.777-4.64 15.285-3.175 6.507 1.466 8.723 4.885 11.529 9.214 3.108 4.794 6.63 10.228 16.132 12.367 9.5 2.139 15.654-1.115 21.085-3.987 4.903-2.592 8.777-4.64 15.283-3.175 6.507 1.466 8.724 4.885 11.53 9.213 3.107 4.795 6.63 10.228 16.131 12.368 9.501 2.139 15.657-1.114 21.088-3.986 4.904-2.592 8.778-4.64 15.285-3.175 2.127.479 4.365-.824 4.997-2.91.632-2.087-.58-4.166-2.707-4.645-9.501-2.14-15.656 1.114-21.088 3.985-4.904 2.593-8.778 4.641-15.285 3.175-6.508-1.465-8.724-4.884-11.53-9.213-3.108-4.794-6.63-10.228-16.131-12.367-9.5-2.139-15.655 1.115-21.086 3.986-4.903 2.593-8.776 4.641-15.282 3.176-6.508-1.466-8.724-4.885-11.531-9.214-3.107-4.794-6.63-10.228-16.131-12.367-9.501-2.14-15.656 1.114-21.087 3.985-4.904 2.593-8.778 4.641-15.285 3.176-6.509-1.466-8.725-4.885-11.531-9.214-3.109-4.794-6.631-10.228-16.133-12.367-9.501-2.14-15.657 1.114-21.088 3.985-4.904 2.593-8.777 4.641-15.285 3.175-6.509-1.465-8.726-4.885-11.533-9.214-3.109-4.794-6.632-10.228-16.134-12.368-2.127-.479-4.364.824-4.997 2.911-.632 2.085.58 4.166 2.707 4.645 6.509 1.465 8.726 4.885 11.533 9.214 3.109 4.794 6.631 10.228 16.134 12.368zm-9.672 32.008c9.5 2.139 15.656-1.115 21.088-3.986 4.904-2.593 8.778-4.641 15.285-3.175 6.508 1.465 8.725 4.885 11.532 9.213 3.107 4.795 6.63 10.228 16.131 12.368 9.502 2.14 15.657-1.115 21.088-3.986 4.904-2.592 8.778-4.64 15.285-3.175 6.507 1.465 8.724 4.885 11.53 9.213 3.108 4.795 6.63 10.228 16.132 12.368 9.5 2.139 15.654-1.115 21.085-3.987 4.903-2.592 8.777-4.64 15.283-3.175 6.507 1.465 8.723 4.885 11.53 9.213 3.107 4.795 6.63 10.228 16.13 12.367 9.502 2.14 15.657-1.114 21.089-3.985 4.904-2.593 8.778-4.641 15.285-3.175 2.127.479 4.365-.825 4.997-2.911.632-2.086-.58-4.166-2.707-4.645-9.501-2.139-15.656 1.115-21.088 3.986-4.904 2.593-8.778 4.641-15.286 3.175-6.507-1.465-8.723-4.885-11.529-9.214-3.108-4.794-6.63-10.227-16.131-12.367-9.5-2.139-15.655 1.115-21.086 3.987-4.903 2.592-8.776 4.641-15.283 3.175-6.507-1.465-8.724-4.885-11.53-9.214-3.107-4.793-6.63-10.227-16.131-12.366-9.501-2.14-15.656 1.114-21.087 3.985-4.904 2.593-8.779 4.641-15.286 3.176-6.508-1.466-8.724-4.886-11.53-9.215-3.109-4.794-6.631-10.227-16.133-12.367-9.501-2.139-15.657 1.115-21.088 3.986-4.904 2.593-8.778 4.641-15.285 3.175-6.509-1.466-8.726-4.885-11.534-9.215-3.108-4.794-6.631-10.227-16.133-12.367-2.127-.479-4.365.824-4.997 2.91-.632 2.086.58 4.166 2.707 4.645 6.509 1.466 8.726 4.886 11.533 9.215 3.109 4.794 6.631 10.228 16.134 12.368zm-9.672 32.007c9.501 2.14 15.657-1.114 21.088-3.985 4.904-2.593 8.778-4.641 15.286-3.176 6.508 1.466 8.725 4.885 11.531 9.214 3.108 4.795 6.631 10.228 16.132 12.368 9.501 2.139 15.656-1.115 21.088-3.987 4.904-2.592 8.777-4.64 15.285-3.174 6.507 1.465 8.723 4.884 11.53 9.213 3.107 4.794 6.63 10.228 16.131 12.367 9.5 2.14 15.654-1.115 21.085-3.986 4.903-2.593 8.777-4.641 15.283-3.176 6.507 1.466 8.724 4.885 11.53 9.214 3.108 4.794 6.63 10.228 16.131 12.367 9.501 2.14 15.657-1.114 21.088-3.986 4.904-2.592 8.778-4.64 15.285-3.175 2.127.479 4.365-.824 4.997-2.91.633-2.087-.58-4.166-2.707-4.645-9.5-2.139-15.656 1.114-21.087 3.985-4.904 2.593-8.778 4.641-15.286 3.176-6.507-1.466-8.724-4.885-11.53-9.214-3.107-4.794-6.63-10.227-16.131-12.367-9.5-2.139-15.655 1.115-21.086 3.987-4.903 2.592-8.776 4.64-15.282 3.175-6.508-1.465-8.724-4.885-11.53-9.214-3.108-4.794-6.631-10.227-16.131-12.367-9.502-2.139-15.657 1.115-21.088 3.986-4.904 2.593-8.778 4.641-15.285 3.175-6.509-1.465-8.725-4.885-11.531-9.214-3.108-4.794-6.631-10.227-16.132-12.367-9.502-2.14-15.657 1.114-21.089 3.985-4.904 2.593-8.777 4.641-15.285 3.176-6.509-1.466-8.726-4.886-11.533-9.215-3.109-4.794-6.632-10.228-16.134-12.367-2.127-.479-4.364.823-4.997 2.91-.632 2.086.58 4.166 2.707 4.645 6.509 1.466 8.726 4.885 11.534 9.215 3.108 4.794 6.631 10.227 16.133 12.367z" fill="#1254FF"/><path d="M-83.409 138.147c9.501 2.14 15.657-1.114 21.088-3.985 4.904-2.593 8.778-4.641 15.286-3.175 6.508 1.465 8.725 4.885 11.531 9.214 3.108 4.794 6.63 10.227 16.132 12.367 9.501 2.139 15.656-1.115 21.088-3.986 4.904-2.593 8.777-4.641 15.285-3.175 6.507 1.465 8.723 4.885 11.53 9.214 3.107 4.794 6.63 10.227 16.131 12.367 9.5 2.139 15.654-1.115 21.085-3.986 4.904-2.593 8.777-4.642 15.284-3.176 6.507 1.465 8.723 4.884 11.529 9.214 3.108 4.793 6.63 10.227 16.131 12.366 9.501 2.14 15.657-1.114 21.088-3.985 4.904-2.593 8.778-4.641 15.286-3.176 2.126.479 4.364-.823 4.996-2.91.633-2.086-.58-4.166-2.707-4.645-9.5-2.139-15.656 1.115-21.087 3.986-4.904 2.592-8.778 4.64-15.286 3.175-6.507-1.465-8.724-4.885-11.53-9.213-3.107-4.795-6.63-10.228-16.13-12.368-9.5-2.139-15.656 1.116-21.087 3.987-4.903 2.593-8.776 4.64-15.282 3.175-6.508-1.465-8.724-4.885-11.53-9.213-3.108-4.795-6.63-10.228-16.131-12.368-9.501-2.139-15.657 1.115-21.088 3.987-4.904 2.592-8.778 4.64-15.285 3.174-6.508-1.465-8.725-4.885-11.531-9.213-3.108-4.795-6.63-10.228-16.132-12.368-9.502-2.139-15.657 1.115-21.089 3.986-4.904 2.592-8.777 4.64-15.285 3.175-6.509-1.466-8.726-4.885-11.533-9.215-3.108-4.794-6.632-10.227-16.134-12.367-2.127-.479-4.364.824-4.996 2.91-.633 2.087.58 4.166 2.706 4.645 6.509 1.466 8.726 4.886 11.534 9.215 3.108 4.794 6.63 10.227 16.133 12.367zm-9.671 32.008c9.5 2.14 15.656-1.114 21.087-3.985 4.904-2.593 8.778-4.641 15.286-3.176 6.508 1.466 8.725 4.885 11.532 9.215 3.107 4.793 6.63 10.227 16.131 12.366 9.502 2.14 15.657-1.114 21.088-3.985 4.904-2.593 8.778-4.641 15.285-3.176 6.507 1.466 8.724 4.885 11.53 9.214 3.107 4.794 6.63 10.228 16.131 12.367 9.5 2.14 15.655-1.115 21.085-3.986 4.904-2.593 8.777-4.641 15.284-3.176 6.507 1.466 8.723 4.885 11.53 9.214 3.107 4.794 6.63 10.227 16.13 12.367 9.502 2.139 15.657-1.114 21.089-3.985 4.904-2.593 8.777-4.641 15.285-3.176 2.127.479 4.364-.824 4.997-2.91.632-2.086-.58-4.166-2.707-4.645-9.501-2.14-15.657 1.114-21.088 3.985-4.904 2.593-8.778 4.641-15.286 3.176-6.507-1.466-8.723-4.885-11.53-9.214-3.107-4.794-6.63-10.228-16.13-12.367-9.5-2.139-15.656 1.115-21.086 3.986-4.904 2.593-8.776 4.641-15.283 3.176-6.507-1.466-8.724-4.885-11.53-9.214-3.108-4.794-6.63-10.227-16.13-12.367-9.502-2.139-15.657 1.115-21.089 3.986-4.904 2.592-8.778 4.64-15.285 3.175-6.508-1.466-8.724-4.885-11.53-9.213-3.109-4.795-6.632-10.229-16.133-12.368-9.501-2.14-15.657 1.114-21.088 3.986-4.904 2.592-8.778 4.64-15.285 3.175-6.51-1.466-8.726-4.886-11.534-9.215-3.108-4.794-6.631-10.228-16.133-12.367-2.127-.479-4.365.824-4.997 2.91-.633 2.086.58 4.166 2.707 4.645 6.509 1.466 8.726 4.885 11.533 9.215 3.108 4.794 6.631 10.227 16.134 12.367zm-9.672 32.008c9.5 2.14 15.656-1.114 21.087-3.985 4.905-2.593 8.779-4.641 15.286-3.175 6.508 1.465 8.725 4.885 11.532 9.213 3.108 4.795 6.63 10.228 16.132 12.368 9.5 2.139 15.656-1.115 21.087-3.986 4.904-2.592 8.778-4.64 15.285-3.175 6.507 1.465 8.724 4.885 11.53 9.213 3.107 4.795 6.63 10.228 16.132 12.368 9.5 2.139 15.654-1.115 21.085-3.987 4.903-2.592 8.776-4.64 15.283-3.175 6.507 1.465 8.723 4.885 11.53 9.213 3.107 4.795 6.63 10.228 16.13 12.367 9.502 2.14 15.657-1.114 21.089-3.985 4.904-2.593 8.778-4.641 15.285-3.175 2.127.479 4.365-.825 4.997-2.911.632-2.086-.58-4.166-2.707-4.645-9.501-2.139-15.656 1.115-21.088 3.986-4.904 2.593-8.778 4.641-15.286 3.175-6.507-1.465-8.723-4.885-11.53-9.214-3.107-4.794-6.63-10.227-16.13-12.367-9.5-2.139-15.655 1.115-21.086 3.987-4.903 2.592-8.776 4.641-15.283 3.175-6.507-1.465-8.724-4.885-11.53-9.214-3.107-4.793-6.63-10.227-16.13-12.366-9.502-2.14-15.657 1.114-21.088 3.985-4.904 2.593-8.779 4.641-15.286 3.176-6.508-1.466-8.724-4.886-11.53-9.215-3.109-4.794-6.631-10.227-16.133-12.367-9.501-2.139-15.657 1.115-21.088 3.986-4.904 2.592-8.778 4.641-15.285 3.175-6.509-1.466-8.726-4.885-11.534-9.215-3.108-4.794-6.631-10.227-16.133-12.367-2.127-.479-4.365.824-4.997 2.91-.632 2.086.58 4.166 2.707 4.645 6.509 1.466 8.726 4.886 11.533 9.215 3.109 4.794 6.631 10.228 16.134 12.367zm-9.672 32.008c9.501 2.14 15.656-1.114 21.088-3.985 4.904-2.593 8.778-4.641 15.285-3.176 6.508 1.466 8.725 4.886 11.532 9.214 3.108 4.795 6.63 10.228 16.132 12.368 9.5 2.139 15.656-1.115 21.087-3.986 4.904-2.593 8.778-4.641 15.286-3.175 6.507 1.465 8.723 4.885 11.53 9.213 3.107 4.794 6.63 10.228 16.13 12.367 9.5 2.14 15.655-1.114 21.086-3.986 4.903-2.593 8.777-4.641 15.283-3.175 6.507 1.465 8.724 4.884 11.53 9.213 3.107 4.794 6.63 10.228 16.13 12.367 9.502 2.14 15.658-1.114 21.089-3.986 4.904-2.592 8.778-4.64 15.285-3.175 2.127.479 4.365-.824 4.997-2.91.632-2.086-.58-4.166-2.707-4.645-9.501-2.139-15.656 1.115-21.088 3.985-4.904 2.593-8.778 4.641-15.285 3.176-6.508-1.466-8.724-4.885-11.53-9.214-3.108-4.794-6.63-10.227-16.131-12.367-9.5-2.139-15.655 1.115-21.086 3.987-4.903 2.592-8.776 4.64-15.283 3.175-6.507-1.465-8.724-4.885-11.53-9.214-3.107-4.794-6.63-10.227-16.13-12.367-9.502-2.139-15.657 1.115-21.088 3.986-4.904 2.593-8.778 4.641-15.286 3.175-6.508-1.465-8.724-4.885-11.53-9.214-3.109-4.794-6.631-10.227-16.133-12.367-9.5-2.14-15.657 1.114-21.088 3.985-4.904 2.593-8.778 4.641-15.285 3.176-6.509-1.466-8.726-4.886-11.534-9.215-3.108-4.794-6.631-10.227-16.133-12.367-2.127-.479-4.365.824-4.997 2.91-.632 2.086.58 4.166 2.707 4.645 6.509 1.466 8.726 4.886 11.533 9.215 3.109 4.794 6.631 10.227 16.134 12.367zm-9.672 32.008c9.501 2.139 15.657-1.115 21.088-3.986 4.904-2.593 8.778-4.64 15.286-3.175 6.507 1.465 8.724 4.885 11.531 9.214 3.108 4.794 6.63 10.228 16.132 12.367 9.501 2.14 15.656-1.114 21.088-3.986 4.904-2.592 8.777-4.64 15.285-3.175 6.507 1.466 8.723 4.885 11.53 9.214 3.107 4.794 6.63 10.228 16.131 12.367 9.5 2.139 15.654-1.115 21.085-3.987 4.904-2.592 8.777-4.64 15.283-3.175 6.507 1.465 8.724 4.885 11.53 9.213 3.108 4.795 6.63 10.228 16.13 12.368 9.502 2.139 15.658-1.115 21.09-3.986 4.903-2.592 8.777-4.64 15.285-3.175 2.126.479 4.364-.824 4.996-2.91.633-2.087-.58-4.166-2.707-4.645-9.5-2.14-15.656 1.114-21.087 3.985-4.904 2.593-8.778 4.641-15.286 3.175-6.507-1.465-8.724-4.884-11.53-9.214-3.107-4.793-6.63-10.227-16.13-12.366-9.5-2.14-15.656 1.115-21.087 3.986-4.903 2.593-8.776 4.641-15.282 3.176-6.508-1.466-8.724-4.885-11.53-9.214-3.108-4.794-6.63-10.228-16.131-12.367-9.502-2.14-15.657 1.114-21.088 3.985-4.904 2.593-8.778 4.641-15.285 3.176-6.509-1.466-8.725-4.885-11.531-9.214-3.108-4.794-6.631-10.228-16.132-12.367-9.502-2.14-15.657 1.114-21.089 3.985-4.904 2.593-8.777 4.641-15.285 3.175-6.509-1.465-8.726-4.885-11.533-9.214-3.109-4.794-6.632-10.228-16.134-12.368-2.127-.479-4.364.823-4.997 2.911-.632 2.086.58 4.166 2.707 4.645 6.509 1.465 8.726 4.885 11.534 9.215 3.108 4.793 6.631 10.227 16.133 12.367zm808.531 45.911c9.501 2.14 15.656-1.114 21.088-3.985 4.904-2.593 8.778-4.641 15.286-3.175 6.507 1.465 8.724 4.885 11.531 9.214 3.108 4.794 6.63 10.227 16.132 12.367 9.501 2.139 15.656-1.115 21.087-3.986 4.904-2.593 8.778-4.641 15.286-3.175 6.507 1.465 8.723 4.885 11.529 9.214 3.108 4.794 6.63 10.227 16.132 12.367 9.5 2.139 15.654-1.115 21.085-3.986 4.903-2.593 8.777-4.642 15.283-3.176 6.507 1.465 8.724 4.884 11.53 9.213 3.107 4.794 6.63 10.228 16.131 12.367 9.501 2.14 15.657-1.114 21.088-3.985 4.904-2.593 8.778-4.641 15.285-3.176 2.127.479 4.365-.823 4.997-2.91.632-2.086-.58-4.166-2.707-4.645-9.5-2.139-15.656 1.115-21.088 3.985-4.904 2.593-8.778 4.641-15.285 3.176-6.508-1.466-8.724-4.885-11.53-9.213-3.108-4.795-6.63-10.228-16.131-12.368-9.5-2.139-15.655 1.116-21.086 3.987-4.903 2.593-8.776 4.64-15.282 3.175-6.508-1.465-8.724-4.885-11.531-9.213-3.107-4.795-6.63-10.228-16.131-12.368-9.501-2.139-15.656 1.115-21.087 3.987-4.904 2.592-8.778 4.64-15.286 3.174-6.508-1.465-8.724-4.885-11.531-9.213-3.108-4.795-6.63-10.228-16.132-12.368-9.501-2.139-15.657 1.115-21.088 3.986-4.904 2.592-8.777 4.641-15.285 3.175-6.509-1.466-8.726-4.885-11.534-9.215-3.108-4.794-6.631-10.227-16.133-12.367-2.127-.479-4.365.824-4.997 2.91-.632 2.087.58 4.166 2.707 4.645 6.509 1.466 8.726 4.886 11.533 9.215 3.109 4.794 6.631 10.228 16.134 12.367zm-9.672 32.008c9.501 2.139 15.657-1.115 21.088-3.986 4.904-2.593 8.778-4.641 15.286-3.175 6.508 1.465 8.725 4.885 11.531 9.214 3.108 4.794 6.631 10.228 16.132 12.367 9.501 2.14 15.656-1.114 21.088-3.985 4.904-2.593 8.777-4.641 15.285-3.176 6.507 1.465 8.723 4.885 11.529 9.214 3.108 4.794 6.631 10.227 16.132 12.367 9.5 2.139 15.655-1.115 21.085-3.986 4.904-2.593 8.777-4.641 15.284-3.176 6.507 1.465 8.723 4.885 11.529 9.214 3.108 4.794 6.63 10.227 16.131 12.367 9.501 2.139 15.657-1.115 21.088-3.986 4.904-2.593 8.778-4.641 15.286-3.175 2.127.479 4.364-.824 4.996-2.911.633-2.086-.58-4.166-2.706-4.645-9.501-2.139-15.657 1.115-21.088 3.986-4.904 2.593-8.778 4.641-15.286 3.175-6.507-1.465-8.723-4.885-11.53-9.213-3.107-4.795-6.63-10.228-16.131-12.368-9.5-2.139-15.655 1.116-21.086 3.987-4.903 2.593-8.776 4.641-15.282 3.176-6.508-1.466-8.724-4.885-11.53-9.214-3.108-4.794-6.631-10.228-16.131-12.367-9.501-2.14-15.657 1.114-21.088 3.986-4.904 2.592-8.778 4.64-15.285 3.175-6.508-1.466-8.725-4.885-11.531-9.214-3.108-4.794-6.631-10.228-16.132-12.368-9.501-2.139-15.657 1.115-21.089 3.986-4.904 2.593-8.777 4.641-15.285 3.175-6.509-1.465-8.726-4.885-11.533-9.214-3.108-4.794-6.632-10.228-16.134-12.368-2.127-.479-4.364.825-4.996 2.911-.633 2.086.58 4.166 2.706 4.645 6.509 1.465 8.726 4.885 11.534 9.214 3.108 4.794 6.631 10.228 16.133 12.368zm-9.671 32.008c9.5 2.139 15.656-1.115 21.087-3.986 4.904-2.592 8.778-4.64 15.286-3.175 6.508 1.466 8.725 4.885 11.532 9.214 3.107 4.794 6.63 10.228 16.131 12.367 9.502 2.14 15.657-1.114 21.088-3.986 4.904-2.592 8.777-4.64 15.285-3.175 6.507 1.466 8.724 4.885 11.53 9.214 3.107 4.794 6.63 10.228 16.131 12.367 9.5 2.14 15.655-1.115 21.086-3.986 4.903-2.593 8.776-4.641 15.283-3.176 6.507 1.466 8.723 4.885 11.529 9.214 3.108 4.794 6.631 10.228 16.131 12.367 9.502 2.14 15.657-1.114 21.089-3.986 4.904-2.592 8.778-4.64 15.285-3.175 2.127.479 4.364-.824 4.997-2.91.632-2.087-.58-4.166-2.707-4.645-9.501-2.14-15.657 1.114-21.088 3.985-4.904 2.593-8.778 4.641-15.286 3.176-6.507-1.466-8.723-4.885-11.529-9.214-3.108-4.794-6.631-10.228-16.131-12.367-9.5-2.139-15.655 1.115-21.086 3.986-4.904 2.593-8.776 4.641-15.283 3.176-6.508-1.466-8.724-4.885-11.53-9.214-3.108-4.794-6.63-10.227-16.131-12.367-9.501-2.14-15.656 1.115-21.088 3.986-4.904 2.592-8.778 4.64-15.285 3.175-6.508-1.466-8.725-4.885-11.531-9.214-3.108-4.794-6.631-10.228-16.132-12.367-9.501-2.14-15.657 1.114-21.088 3.985-4.904 2.593-8.778 4.641-15.286 3.176-6.509-1.466-8.725-4.886-11.533-9.215-3.108-4.794-6.632-10.228-16.133-12.368-2.127-.479-4.365.824-4.997 2.911-.632 2.086.58 4.166 2.707 4.645 6.509 1.466 8.726 4.885 11.533 9.215 3.108 4.794 6.631 10.227 16.134 12.367z" fill="#1254FF"/></svg>