<svg width="1440" height="800" fill="none" xmlns="http://www.w3.org/2000/svg"><mask id="a" maskUnits="userSpaceOnUse" x="0" y="0" width="1440" height="800"><path fill="#F8F8F8" d="M0 0h1440v800H0z"/></mask><g mask="url(#a)" fill="#1254FF"><path d="M962.16 643.2c-7.972 5.566-14.899 4.89-21.01 4.293-5.518-.539-9.877-.965-15.338 2.847-5.46 3.813-6.212 7.807-7.164 12.864-1.053 5.599-2.248 11.946-10.22 17.512-7.972 5.567-14.898 4.89-21.009 4.293-5.519-.539-9.877-.965-15.338 2.848-5.46 3.812-6.211 7.806-7.162 12.862-1.054 5.599-2.248 11.946-10.22 17.512-7.972 5.566-14.897 4.889-21.008 4.292-5.517-.54-9.876-.966-15.335 2.846-5.46 3.812-6.211 7.806-7.163 12.863-1.053 5.599-2.248 11.945-10.22 17.511-7.972 5.567-14.898 4.891-21.009 4.294-5.519-.539-9.877-.965-15.338 2.847-1.784 1.246-4.347.89-5.724-.797-1.376-1.686-1.045-4.065.739-5.311 7.972-5.566 14.899-4.889 21.01-4.293 5.518.54 9.877.965 15.338-2.847 5.46-3.813 6.211-7.806 7.162-12.862 1.054-5.6 2.248-11.947 10.22-17.513 7.971-5.565 14.897-4.888 21.008-4.291 5.518.54 9.875.966 15.335-2.846 5.46-3.813 6.211-7.807 7.163-12.863 1.053-5.599 2.248-11.946 10.22-17.512 7.972-5.566 14.898-4.89 21.009-4.293 5.518.539 9.877.965 15.337-2.847 5.461-3.813 6.212-7.807 7.164-12.863 1.054-5.6 2.248-11.947 10.221-17.513 7.972-5.567 14.898-4.89 21.01-4.293 5.518.539 9.876.965 15.337-2.848 5.461-3.813 6.213-7.808 7.165-12.865 1.054-5.599 2.25-11.946 10.222-17.513 1.785-1.246 4.349-.889 5.725.797 1.376 1.687 1.045 4.065-.74 5.311-5.461 3.813-6.213 7.807-7.165 12.864-1.054 5.6-2.249 11.947-10.222 17.514zm21.172 25.964c-7.972 5.566-14.898 4.89-21.009 4.293-5.518-.539-9.878-.965-15.338 2.848-5.46 3.812-6.212 7.807-7.164 12.863-1.054 5.6-2.248 11.946-10.22 17.513-7.973 5.566-14.898 4.889-21.01 4.293-5.518-.54-9.877-.966-15.337 2.847-5.46 3.812-6.211 7.806-7.162 12.862-1.054 5.6-2.249 11.946-10.221 17.513-7.971 5.565-14.896 4.888-21.007 4.291-5.518-.539-9.876-.966-15.336 2.846-5.46 3.813-6.211 7.806-7.162 12.863-1.054 5.599-2.248 11.946-10.22 17.512-7.972 5.566-14.899 4.89-21.01 4.293-5.518-.539-9.877-.965-15.337 2.847-1.785 1.246-4.348.89-5.725-.797-1.376-1.686-1.045-4.064.74-5.31 7.972-5.566 14.898-4.89 21.009-4.293 5.519.539 9.878.965 15.338-2.848 5.46-3.812 6.211-7.806 7.163-12.862 1.053-5.6 2.248-11.946 10.219-17.512 7.972-5.566 14.898-4.889 21.009-4.292 5.517.54 9.875.966 15.334-2.846 5.461-3.813 6.212-7.807 7.164-12.862 1.053-5.6 2.247-11.947 10.219-17.513 7.972-5.566 14.898-4.89 21.01-4.292 5.518.538 9.877.964 15.337-2.848 5.461-3.813 6.212-7.807 7.164-12.863 1.053-5.6 2.248-11.947 10.22-17.513 7.972-5.566 14.899-4.89 21.01-4.293 5.518.539 9.877.965 15.337-2.848 5.462-3.813 6.214-7.807 7.166-12.864 1.054-5.6 2.249-11.947 10.222-17.514 1.785-1.246 4.345-.889 5.725.797 1.38 1.687 1.04 4.065-.74 5.311-5.462 3.813-6.213 7.808-7.166 12.865-1.054 5.599-2.248 11.946-10.222 17.513zm21.178 25.965c-7.977 5.566-14.903 4.89-21.014 4.293-5.518-.539-9.878-.965-15.338 2.848-5.461 3.812-6.212 7.807-7.164 12.863-1.054 5.6-2.248 11.946-10.22 17.513-7.973 5.566-14.899 4.889-21.01 4.292-5.518-.539-9.877-.965-15.337 2.848-5.46 3.812-6.211 7.806-7.163 12.862-1.053 5.6-2.248 11.946-10.22 17.513-7.971 5.565-14.896 4.888-21.008 4.291-5.517-.539-9.875-.966-15.335 2.846-5.46 3.813-6.211 7.806-7.163 12.862-1.053 5.6-2.247 11.947-10.219 17.513-7.972 5.566-14.899 4.89-21.01 4.293-5.518-.539-9.877-.965-15.337 2.847-1.785 1.246-4.348.889-5.725-.797-1.376-1.687-1.045-4.064.74-5.31 7.972-5.566 14.898-4.89 21.009-4.293 5.518.539 9.878.965 15.338-2.848 5.46-3.812 6.211-7.806 7.162-12.863 1.054-5.599 2.249-11.945 10.22-17.511 7.972-5.566 14.897-4.889 21.009-4.292 5.517.539 9.875.966 15.334-2.846 5.461-3.813 6.212-7.807 7.163-12.863 1.054-5.599 2.248-11.946 10.22-17.512 7.972-5.566 14.898-4.89 21.009-4.293 5.519.539 9.878.965 15.338-2.847 5.461-3.813 6.212-7.807 7.163-12.863 1.054-5.6 2.249-11.947 10.221-17.513 7.972-5.566 14.899-4.89 21.01-4.293 5.518.539 9.877.965 15.337-2.848 5.46-3.813 6.21-7.807 7.17-12.864 1.05-5.6 2.25-11.947 10.22-17.514 1.78-1.246 4.35-.889 5.72.797 1.38 1.687 1.05 4.065-.74 5.311-5.46 3.813-6.21 7.808-7.16 12.865-1.06 5.599-2.25 11.946-10.22 17.513zm21.17 25.964c-7.97 5.567-14.9 4.89-21.01 4.294-5.52-.54-9.879-.965-15.34 2.847-5.46 3.813-6.212 7.807-7.164 12.863-1.053 5.6-2.248 11.947-10.22 17.513-7.972 5.566-14.898 4.89-21.01 4.293-5.518-.539-9.876-.965-15.337 2.847-5.46 3.813-6.211 7.806-7.162 12.862-1.053 5.6-2.248 11.947-10.22 17.513-7.972 5.566-14.897 4.889-21.008 4.291-5.517-.539-9.876-.965-15.335 2.847-5.46 3.812-6.211 7.806-7.163 12.862-1.053 5.6-2.248 11.946-10.219 17.512-7.973 5.567-14.899 4.89-21.011 4.293-5.518-.539-9.877-.964-15.337 2.848-1.784 1.246-4.348.889-5.724-.797-1.377-1.687-1.045-4.065.739-5.311 7.972-5.566 14.899-4.89 21.01-4.293 5.518.539 9.877.965 15.338-2.848 5.46-3.812 6.211-7.806 7.162-12.862 1.054-5.599 2.248-11.946 10.22-17.512 7.971-5.566 14.897-4.889 21.008-4.291 5.517.539 9.875.965 15.335-2.847 5.46-3.812 6.211-7.806 7.163-12.863 1.053-5.599 2.248-11.945 10.22-17.511 7.972-5.567 14.898-4.89 21.009-4.293 5.518.539 9.877.965 15.337-2.848 5.461-3.813 6.212-7.807 7.164-12.863 1.054-5.6 2.248-11.946 10.221-17.513 7.972-5.566 14.898-4.89 21.014-4.293 5.51.539 9.87.965 15.33-2.847 5.46-3.814 6.22-7.808 7.17-12.865 1.05-5.6 2.25-11.947 10.22-17.513 1.78-1.246 4.35-.89 5.72.797 1.38 1.686 1.05 4.064-.73 5.31-5.47 3.814-6.22 7.808-7.17 12.865-1.05 5.6-2.25 11.946-10.22 17.513zm21.17 25.965c-7.97 5.566-14.9 4.889-21.01 4.293-5.52-.539-9.88-.965-15.34 2.847-5.46 3.813-6.21 7.807-7.16 12.864-1.05 5.599-2.25 11.946-10.221 17.512-7.973 5.567-14.899 4.89-21.01 4.293-5.518-.539-9.877-.965-15.337 2.848-5.46 3.812-6.211 7.806-7.163 12.862-1.053 5.599-2.248 11.946-10.22 17.512-7.971 5.566-14.896 4.889-21.008 4.291-5.517-.539-9.875-.965-15.335 2.847-5.46 3.812-6.211 7.806-7.163 12.862-1.053 5.6-2.247 11.946-10.219 17.512-7.972 5.567-14.899 4.89-21.01 4.293-5.518-.538-9.877-.964-15.337 2.848-1.785 1.246-4.348.889-5.725-.797-1.377-1.687-1.045-4.065.74-5.311 7.972-5.566 14.898-4.889 21.009-4.293 5.518.54 9.878.965 15.338-2.847 5.46-3.813 6.211-7.806 7.162-12.863 1.054-5.599 2.249-11.946 10.22-17.512 7.972-5.565 14.897-4.889 21.008-4.291 5.518.539 9.876.965 15.335-2.846 5.461-3.813 6.212-7.807 7.163-12.863 1.054-5.6 2.248-11.946 10.22-17.512 7.972-5.567 14.898-4.89 21.009-4.293 5.519.539 9.878.965 15.338-2.847 5.461-3.813 6.212-7.807 7.163-12.864 1.054-5.599 2.249-11.946 10.223-17.512 7.97-5.567 14.9-4.89 21.01-4.294 5.52.54 9.87.966 15.34-2.847 5.46-3.813 6.21-7.808 7.16-12.865 1.05-5.599 2.25-11.946 10.22-17.513 1.79-1.246 4.35-.89 5.73.797 1.37 1.686 1.04 4.065-.74 5.311-5.46 3.813-6.22 7.807-7.17 12.864-1.05 5.6-2.25 11.947-10.22 17.514z"/><path d="M1177.92 492.418c-7.97 5.566-14.9 4.89-21.01 4.293-5.52-.539-9.88-.965-15.34 2.848-5.46 3.813-6.21 7.807-7.16 12.864-1.05 5.599-2.25 11.945-10.22 17.512-7.97 5.566-14.9 4.889-21.01 4.293-5.52-.539-9.88-.966-15.34 2.847-5.46 3.812-6.21 7.806-7.16 12.863-1.05 5.599-2.25 11.945-10.22 17.512-7.97 5.565-14.9 4.888-21.01 4.291-5.52-.539-9.87-.965-15.33 2.846-5.46 3.813-6.21 7.807-7.17 12.863-1.05 5.599-2.24 11.946-10.22 17.512-7.97 5.566-14.89 4.89-21.005 4.293-5.519-.539-9.877-.965-15.338 2.848-1.784 1.246-4.347.889-5.724-.798-1.376-1.686-1.045-4.064.739-5.31 7.972-5.566 14.899-4.89 21.01-4.293 5.518.539 9.878.965 15.338-2.848 5.46-3.812 6.21-7.806 7.16-12.862 1.06-5.6 2.25-11.946 10.22-17.512 7.97-5.566 14.9-4.889 21.01-4.292 5.52.54 9.88.966 15.33-2.846 5.47-3.813 6.22-7.806 7.17-12.862 1.05-5.6 2.25-11.947 10.22-17.513 7.97-5.566 14.9-4.889 21.01-4.292 5.52.539 9.87.964 15.33-2.848 5.47-3.813 6.22-7.807 7.17-12.863 1.05-5.6 2.25-11.946 10.22-17.513 7.97-5.566 14.9-4.89 21.01-4.293 5.52.539 9.88.965 15.34-2.848 5.46-3.813 6.21-7.807 7.16-12.864 1.06-5.6 2.25-11.947 10.22-17.514 1.79-1.246 4.35-.889 5.73.798 1.37 1.686 1.04 4.064-.74 5.31-5.46 3.813-6.22 7.808-7.17 12.865-1.05 5.599-2.25 11.946-10.22 17.513zm21.17 25.965c-7.97 5.566-14.9 4.889-21.01 4.293-5.51-.539-9.87-.965-15.33 2.847-5.46 3.813-6.22 7.807-7.17 12.864-1.05 5.599-2.25 11.946-10.22 17.512-7.97 5.567-14.9 4.89-21.01 4.293-5.52-.539-9.87-.965-15.34 2.848-5.46 3.812-6.21 7.806-7.16 12.862-1.05 5.599-2.25 11.946-10.22 17.512-7.97 5.566-14.89 4.889-21.01 4.292-5.51-.54-9.87-.966-15.33 2.846-5.46 3.812-6.21 7.806-7.16 12.862-1.06 5.6-2.25 11.946-10.22 17.512-7.98 5.567-14.9 4.89-21.01 4.294-5.52-.54-9.88-.966-15.34 2.847-1.785 1.246-4.348.89-5.725-.797-1.376-1.686-1.045-4.065.74-5.311 7.975-5.566 14.895-4.889 21.005-4.293 5.52.54 9.88.965 15.34-2.847 5.46-3.813 6.21-7.807 7.16-12.862 1.06-5.6 2.25-11.947 10.22-17.513 7.98-5.565 14.9-4.888 21.01-4.291 5.52.539 9.88.965 15.34-2.846 5.46-3.813 6.21-7.807 7.16-12.863 1.05-5.6 2.25-11.946 10.22-17.512 7.97-5.567 14.9-4.89 21.01-4.293 5.52.539 9.88.965 15.34-2.847 5.46-3.813 6.21-7.807 7.16-12.863 1.05-5.6 2.25-11.947 10.22-17.513 7.97-5.567 14.9-4.89 21.01-4.293 5.52.539 9.88.965 15.34-2.848 5.46-3.813 6.21-7.808 7.16-12.865 1.06-5.599 2.25-11.946 10.23-17.513 1.78-1.246 4.34-.889 5.72.797 1.38 1.687 1.05 4.065-.74 5.311-5.46 3.813-6.21 7.807-7.16 12.864-1.06 5.6-2.25 11.947-10.23 17.514zm21.18 25.965c-7.98 5.566-14.9 4.89-21.01 4.293-5.52-.539-9.88-.965-15.34 2.847-5.46 3.813-6.21 7.807-7.17 12.864-1.05 5.599-2.24 11.946-10.22 17.512-7.97 5.567-14.89 4.89-21.01 4.293-5.51-.539-9.87-.965-15.33 2.848-5.46 3.812-6.21 7.806-7.17 12.862-1.05 5.599-2.24 11.946-10.22 17.512-7.97 5.566-14.89 4.889-21 4.291-5.52-.539-9.88-.965-15.34 2.847-5.46 3.812-6.21 7.806-7.16 12.862-1.05 5.6-2.25 11.946-10.22 17.512-7.97 5.567-14.9 4.891-21.01 4.293-5.52-.538-9.88-.964-15.34 2.848-1.78 1.246-4.35.889-5.72-.797-1.38-1.687-1.05-4.065.74-5.311 7.97-5.566 14.9-4.889 21.01-4.293 5.52.54 9.87.965 15.33-2.847 5.46-3.813 6.22-7.806 7.17-12.863 1.05-5.599 2.25-11.946 10.22-17.512 7.97-5.565 14.89-4.889 21.01-4.291 5.51.539 9.87.966 15.33-2.846 5.46-3.813 6.21-7.807 7.16-12.863 1.06-5.599 2.25-11.946 10.22-17.512 7.97-5.567 14.9-4.89 21.01-4.293 5.52.539 9.88.965 15.34-2.847 5.46-3.813 6.21-7.807 7.16-12.864 1.06-5.599 2.25-11.946 10.22-17.512 7.98-5.567 14.9-4.89 21.01-4.294 5.52.54 9.88.966 15.34-2.847 5.46-3.813 6.21-7.808 7.17-12.865 1.05-5.599 2.25-11.946 10.22-17.513 1.78-1.246 4.35-.89 5.72.797 1.38 1.686 1.05 4.065-.74 5.311-5.46 3.813-6.21 7.807-7.16 12.864-1.06 5.6-2.25 11.947-10.22 17.514zm21.17 25.964c-7.97 5.566-14.9 4.89-21.01 4.293-5.52-.539-9.88-.965-15.34 2.848-5.46 3.812-6.21 7.807-7.16 12.863-1.06 5.6-2.25 11.946-10.22 17.513-7.98 5.566-14.9 4.889-21.01 4.292-5.52-.539-9.88-.965-15.34 2.848-5.46 3.812-6.21 7.806-7.16 12.862-1.06 5.6-2.25 11.946-10.22 17.513-7.97 5.565-14.9 4.888-21.01 4.291-5.52-.539-9.88-.966-15.34 2.846-5.46 3.813-6.21 7.806-7.16 12.862-1.05 5.6-2.25 11.947-10.22 17.513-7.97 5.566-14.9 4.89-21.01 4.293-5.52-.539-9.87-.965-15.33 2.847-1.79 1.246-4.35.889-5.73-.797-1.38-1.687-1.04-4.064.74-5.31 7.97-5.566 14.9-4.89 21.01-4.293 5.52.539 9.88.965 15.34-2.848 5.46-3.812 6.21-7.806 7.16-12.863 1.05-5.599 2.25-11.945 10.22-17.511 7.97-5.566 14.9-4.889 21.01-4.292 5.52.539 9.87.966 15.33-2.846 5.46-3.813 6.21-7.807 7.17-12.863 1.05-5.599 2.24-11.946 10.22-17.512 7.97-5.566 14.89-4.89 21-4.293 5.52.539 9.88.965 15.34-2.847 5.46-3.813 6.21-7.807 7.17-12.863 1.05-5.6 2.24-11.947 10.22-17.513 7.97-5.566 14.89-4.89 21.01-4.293 5.51.539 9.87.965 15.33-2.848 5.46-3.813 6.22-7.807 7.17-12.864 1.05-5.6 2.25-11.947 10.22-17.514 1.79-1.246 4.35-.889 5.73.797 1.37 1.687 1.04 4.065-.74 5.311-5.47 3.813-6.22 7.808-7.17 12.865-1.05 5.599-2.25 11.946-10.22 17.513zm21.17 25.964c-7.97 5.566-14.9 4.89-21.01 4.293-5.52-.539-9.88-.965-15.34 2.848-5.46 3.813-6.21 7.807-7.16 12.863-1.05 5.6-2.25 11.946-10.22 17.513-7.97 5.566-14.9 4.89-21.01 4.292-5.52-.538-9.88-.964-15.34 2.848-5.46 3.812-6.21 7.806-7.16 12.862-1.05 5.6-2.25 11.946-10.22 17.513-7.97 5.566-14.9 4.888-21.01 4.291-5.52-.539-9.87-.965-15.33 2.847-5.46 3.812-6.21 7.806-7.17 12.862-1.05 5.599-2.24 11.946-10.22 17.512-7.97 5.566-14.89 4.89-21.01 4.293-5.51-.539-9.87-.965-15.33 2.848-1.79 1.246-4.35.889-5.73-.798-1.37-1.687-1.04-4.064.74-5.31 7.97-5.566 14.9-4.89 21.01-4.293 5.52.539 9.88.965 15.34-2.848 5.46-3.812 6.21-7.806 7.16-12.862 1.06-5.6 2.25-11.946 10.22-17.512 7.97-5.566 14.9-4.889 21.01-4.292 5.52.54 9.88.966 15.33-2.846 5.47-3.812 6.22-7.806 7.17-12.863 1.05-5.599 2.25-11.946 10.22-17.512 7.97-5.566 14.9-4.889 21.01-4.293 5.52.54 9.87.965 15.33-2.847 5.47-3.813 6.22-7.807 7.17-12.863 1.05-5.6 2.25-11.946 10.22-17.513 7.97-5.566 14.9-4.89 21.01-4.293 5.52.539 9.88.965 15.34-2.847 5.46-3.814 6.21-7.808 7.16-12.865 1.06-5.6 2.25-11.947 10.22-17.514 1.79-1.246 4.35-.89 5.73.798 1.37 1.686 1.04 4.064-.74 5.31-5.46 3.814-6.21 7.808-7.17 12.865-1.05 5.6-2.25 11.946-10.22 17.513zm20.18 24.742c-7.98 5.566-14.9 4.889-21.01 4.293-5.52-.54-9.88-.965-15.34 2.847-5.46 3.813-6.21 7.807-7.17 12.864-1.05 5.599-2.24 11.946-10.22 17.512-7.97 5.567-14.89 4.89-21.01 4.293-5.51-.539-9.87-.965-15.33 2.848-5.46 3.812-6.21 7.806-7.17 12.862-1.05 5.599-2.24 11.946-10.22 17.512-7.97 5.566-14.89 4.889-21 4.292-5.52-.54-9.88-.966-15.34 2.846-5.46 3.812-6.21 7.806-7.16 12.862-1.05 5.6-2.25 11.946-10.22 17.512-7.97 5.567-14.9 4.89-21.01 4.294-5.52-.54-9.88-.966-15.34 2.847-1.78 1.246-4.35.89-5.72-.797-1.38-1.686-1.05-4.065.74-5.311 7.97-5.566 14.9-4.889 21.01-4.293 5.51.54 9.87.965 15.33-2.847 5.46-3.813 6.22-7.807 7.17-12.862 1.05-5.6 2.24-11.947 10.22-17.513 7.97-5.565 14.89-4.888 21-4.291 5.52.539 9.88.965 15.34-2.846 5.46-3.813 6.21-7.807 7.16-12.863 1.06-5.6 2.25-11.946 10.22-17.512 7.97-5.567 14.9-4.89 21.01-4.293 5.52.539 9.88.965 15.34-2.847 5.46-3.813 6.21-7.807 7.16-12.863 1.06-5.6 2.25-11.947 10.22-17.513 7.98-5.567 14.9-4.89 21.01-4.293 5.52.538 9.88.965 15.34-2.848 5.46-3.813 6.21-7.808 7.17-12.865 1.05-5.599 2.25-11.946 10.22-17.513 1.78-1.246 4.35-.889 5.72.797 1.38 1.687 1.05 4.065-.74 5.311-5.46 3.813-6.21 7.807-7.16 12.864-1.06 5.6-2.25 11.946-10.22 17.514zm21.17 25.964c-7.97 5.566-14.9 4.89-21.01 4.293-5.52-.539-9.88-.965-15.34 2.848-5.46 3.812-6.21 7.807-7.16 12.863-1.06 5.6-2.25 11.946-10.22 17.513-7.98 5.566-14.9 4.889-21.01 4.293-5.52-.54-9.88-.966-15.34 2.847-5.46 3.812-6.21 7.806-7.16 12.862-1.06 5.6-2.25 11.946-10.22 17.513-7.97 5.565-14.9 4.888-21.01 4.291-5.52-.539-9.88-.965-15.34 2.846-5.46 3.813-6.21 7.806-7.16 12.863-1.05 5.599-2.25 11.946-10.22 17.512-7.97 5.566-14.9 4.89-21.01 4.293-5.52-.539-9.87-.965-15.34 2.847-1.78 1.246-4.34.89-5.72-.797-1.38-1.686-1.04-4.064.74-5.31 7.97-5.566 14.9-4.89 21.01-4.293 5.52.539 9.88.965 15.34-2.848 5.46-3.812 6.21-7.806 7.16-12.862 1.05-5.6 2.25-11.946 10.22-17.512 7.97-5.566 14.9-4.889 21.01-4.292 5.51.54 9.87.966 15.33-2.846 5.46-3.813 6.21-7.807 7.17-12.862 1.05-5.6 2.24-11.947 10.21-17.513 7.98-5.566 14.9-4.889 21.01-4.292 5.52.538 9.88.964 15.34-2.848 5.46-3.813 6.21-7.807 7.17-12.863 1.05-5.6 2.24-11.947 10.22-17.513 7.97-5.566 14.89-4.89 21.01-4.293 5.51.539 9.87.965 15.33-2.848 5.46-3.813 6.22-7.807 7.17-12.864 1.05-5.6 2.25-11.947 10.22-17.514 1.79-1.246 4.35-.889 5.73.797 1.37 1.687 1.04 4.065-.74 5.311-5.47 3.813-6.22 7.808-7.17 12.865-1.05 5.599-2.25 11.946-10.22 17.513zm21.17 25.965c-7.97 5.566-14.9 4.89-21.01 4.293-5.52-.539-9.88-.965-15.34 2.848-5.46 3.812-6.21 7.806-7.16 12.863-1.05 5.6-2.25 11.946-10.22 17.513-7.97 5.566-14.9 4.889-21.01 4.292-5.52-.539-9.88-.965-15.34 2.848-5.46 3.812-6.21 7.806-7.16 12.862-1.05 5.6-2.25 11.946-10.22 17.513-7.97 5.565-14.9 4.888-21.01 4.291-5.52-.54-9.87-.966-15.33 2.846-5.46 3.813-6.21 7.806-7.17 12.862-1.05 5.6-2.24 11.947-10.22 17.513-7.97 5.566-14.89 4.89-21.01 4.293-5.51-.539-9.87-.965-15.33 2.847-1.79 1.246-4.35.889-5.73-.797-1.37-1.687-1.04-4.064.74-5.31 7.97-5.566 14.9-4.89 21.01-4.293 5.52.539 9.88.965 15.34-2.848 5.46-3.812 6.21-7.806 7.16-12.863 1.06-5.599 2.25-11.945 10.22-17.511 7.97-5.566 14.9-4.889 21.01-4.292 5.52.539 9.88.966 15.33-2.846 5.47-3.813 6.22-7.807 7.17-12.863 1.05-5.599 2.25-11.946 10.22-17.512 7.97-5.566 14.9-4.89 21.01-4.293 5.52.539 9.87.965 15.33-2.847 5.47-3.813 6.22-7.807 7.17-12.863 1.05-5.6 2.25-11.947 10.22-17.513 7.97-5.567 14.9-4.89 21.01-4.294 5.52.54 9.88.966 15.34-2.847 5.46-3.813 6.21-7.807 7.16-12.865 1.06-5.599 2.25-11.946 10.22-17.513 1.79-1.246 4.35-.889 5.73.797 1.37 1.687 1.04 4.065-.74 5.311-5.46 3.813-6.21 7.807-7.17 12.865-1.05 5.599-2.25 11.946-10.22 17.513zm21.17 25.964c-7.97 5.566-14.89 4.89-21.01 4.293-5.51-.539-9.87-.965-15.33 2.848-5.46 3.813-6.22 7.807-7.17 12.863-1.05 5.6-2.25 11.946-10.22 17.513-7.97 5.566-14.9 4.89-21.01 4.292-5.52-.538-9.87-.965-15.33 2.848-5.46 3.812-6.22 7.806-7.17 12.862-1.05 5.6-2.25 11.946-10.22 17.513-7.97 5.566-14.89 4.888-21.01 4.291-5.51-.539-9.87-.965-15.33 2.847-5.46 3.812-6.21 7.806-7.16 12.862-1.06 5.599-2.25 11.946-10.22 17.512-7.98 5.566-14.9 4.89-21.01 4.293-5.52-.539-9.88-.965-15.34 2.848-1.78 1.246-4.35.889-5.72-.798-1.38-1.686-1.05-4.064.74-5.31 7.97-5.566 14.89-4.89 21-4.293 5.52.539 9.88.965 15.34-2.848 5.46-3.812 6.21-7.806 7.16-12.862 1.06-5.6 2.25-11.946 10.22-17.512 7.98-5.566 14.9-4.889 21.01-4.292 5.52.54 9.88.966 15.34-2.846 5.46-3.812 6.21-7.806 7.16-12.863 1.05-5.599 2.25-11.946 10.22-17.512 7.97-5.566 14.9-4.889 21.01-4.293 5.52.54 9.88.965 15.34-2.847 5.46-3.813 6.21-7.807 7.16-12.863 1.05-5.6 2.25-11.946 10.22-17.513 7.97-5.566 14.9-4.89 21.01-4.293 5.52.539 9.88.965 15.34-2.847 5.46-3.814 6.21-7.808 7.16-12.865 1.06-5.6 2.25-11.947 10.23-17.514 1.78-1.246 4.34-.889 5.72.798 1.38 1.686 1.05 4.064-.74 5.31-5.46 3.813-6.21 7.808-7.16 12.865-1.06 5.6-2.25 11.946-10.23 17.513zm21.18 25.965c-7.98 5.566-14.9 4.889-21.01 4.293-5.52-.54-9.88-.965-15.34 2.847-5.46 3.813-6.21 7.807-7.17 12.863-1.05 5.6-2.24 11.947-10.22 17.513-7.97 5.567-14.89 4.89-21.01 4.293-5.51-.539-9.87-.965-15.33 2.847-5.46 3.813-6.21 7.807-7.17 12.862-1.05 5.6-2.24 11.947-10.22 17.513-7.97 5.566-14.89 4.889-21 4.291-5.52-.539-9.88-.965-15.34 2.847-5.46 3.812-6.21 7.806-7.16 12.862-1.05 5.6-2.25 11.946-10.22 17.512-7.97 5.567-14.9 4.89-21.01 4.293-5.52-.539-9.88-.964-15.34 2.848-1.78 1.246-4.35.889-5.72-.797-1.38-1.688-1.05-4.065.74-5.311 7.97-5.566 14.9-4.89 21.01-4.293 5.51.539 9.87.965 15.33-2.848 5.46-3.812 6.22-7.806 7.17-12.862 1.05-5.599 2.25-11.946 10.22-17.512 7.97-5.566 14.89-4.889 21-4.291 5.52.539 9.88.965 15.34-2.847 5.46-3.812 6.21-7.806 7.16-12.862 1.06-5.6 2.25-11.946 10.22-17.512 7.97-5.567 14.9-4.89 21.01-4.293 5.52.539 9.88.965 15.34-2.848 5.46-3.813 6.21-7.807 7.16-12.863 1.06-5.6 2.25-11.946 10.22-17.513 7.98-5.566 14.9-4.89 21.01-4.293 5.52.539 9.88.965 15.34-2.847 5.46-3.814 6.21-7.808 7.17-12.865 1.05-5.6 2.25-11.947 10.22-17.513 1.78-1.246 4.35-.89 5.72.797 1.38 1.686 1.05 4.064-.74 5.31-5.46 3.814-6.21 7.808-7.16 12.865-1.06 5.6-2.25 11.946-10.22 17.514z"/><path d="M1393.68 341.637c-7.97 5.566-14.9 4.89-21.01 4.293-5.52-.539-9.88-.965-15.34 2.848-5.46 3.812-6.21 7.807-7.16 12.863-1.05 5.6-2.25 11.946-10.22 17.513-7.97 5.566-14.9 4.889-21.01 4.293-5.52-.54-9.88-.966-15.34 2.847-5.46 3.812-6.21 7.806-7.16 12.863-1.05 5.599-2.25 11.945-10.22 17.512-7.97 5.565-14.9 4.888-21.01 4.291-5.51-.539-9.87-.965-15.33 2.846-5.46 3.813-6.21 7.807-7.16 12.863-1.06 5.599-2.25 11.946-10.22 17.512-7.98 5.566-14.9 4.89-21.01 4.293-5.52-.539-9.88-.965-15.34 2.848-1.79 1.246-4.35.889-5.73-.798-1.37-1.686-1.04-4.064.74-5.31 7.98-5.566 14.9-4.89 21.01-4.293 5.52.539 9.88.965 15.34-2.848 5.46-3.812 6.21-7.806 7.16-12.862 1.06-5.6 2.25-11.946 10.22-17.512 7.97-5.566 14.9-4.889 21.01-4.292 5.52.54 9.88.966 15.34-2.846 5.46-3.813 6.21-7.806 7.16-12.862 1.05-5.6 2.25-11.947 10.22-17.513 7.97-5.566 14.9-4.889 21.01-4.292 5.52.539 9.88.964 15.34-2.848 5.46-3.813 6.21-7.807 7.16-12.863 1.05-5.6 2.25-11.946 10.22-17.513 7.97-5.566 14.9-4.89 21.01-4.293 5.52.539 9.88.965 15.34-2.848 5.46-3.813 6.21-7.807 7.16-12.864 1.06-5.6 2.25-11.947 10.22-17.514 1.79-1.246 4.35-.889 5.73.797 1.38 1.687 1.04 4.065-.74 5.311-5.46 3.813-6.21 7.808-7.17 12.865-1.05 5.599-2.25 11.946-10.22 17.513zm21.17 25.965c-7.97 5.566-14.89 4.889-21.01 4.293-5.51-.54-9.87-.965-15.33 2.847-5.46 3.813-6.22 7.807-7.17 12.864-1.05 5.599-2.25 11.946-10.22 17.512-7.97 5.567-14.9 4.89-21.01 4.293-5.52-.539-9.87-.965-15.33 2.848-5.46 3.812-6.22 7.806-7.17 12.862-1.05 5.599-2.25 11.946-10.22 17.512-7.97 5.566-14.89 4.889-21 4.292-5.52-.54-9.88-.966-15.34 2.846-5.46 3.812-6.21 7.806-7.16 12.862-1.06 5.6-2.25 11.946-10.22 17.512-7.97 5.567-14.9 4.89-21.01 4.294-5.52-.54-9.88-.966-15.34 2.847-1.78 1.246-4.35.89-5.72-.797-1.38-1.686-1.05-4.065.74-5.311 7.97-5.566 14.89-4.889 21-4.293 5.52.539 9.88.965 15.34-2.847 5.46-3.813 6.21-7.807 7.17-12.862 1.05-5.6 2.24-11.947 10.21-17.513 7.98-5.565 14.9-4.888 21.01-4.291 5.52.539 9.88.965 15.34-2.846 5.46-3.813 6.21-7.807 7.16-12.863 1.05-5.6 2.25-11.946 10.22-17.512 7.97-5.567 14.9-4.89 21.01-4.293 5.52.539 9.88.965 15.34-2.848 5.46-3.813 6.21-7.806 7.16-12.862 1.05-5.6 2.25-11.947 10.22-17.513 7.97-5.567 14.9-4.89 21.01-4.293 5.52.538 9.88.965 15.34-2.848 5.46-3.813 6.21-7.808 7.16-12.865 1.06-5.599 2.25-11.946 10.23-17.513 1.78-1.246 4.34-.889 5.72.797 1.38 1.687 1.05 4.064-.74 5.311-5.46 3.813-6.21 7.807-7.16 12.864-1.06 5.6-2.25 11.946-10.23 17.514zm21.18 25.964c-7.98 5.567-14.9 4.89-21.01 4.294-5.52-.54-9.88-.965-15.34 2.847-5.46 3.813-6.21 7.807-7.17 12.863-1.05 5.6-2.24 11.947-10.22 17.513-7.97 5.566-14.89 4.89-21 4.293-5.52-.539-9.88-.965-15.34 2.847-5.46 3.813-6.21 7.806-7.16 12.862-1.06 5.6-2.25 11.947-10.22 17.513-7.98 5.566-14.9 4.889-21.01 4.291-5.52-.539-9.88-.965-15.34 2.847-5.46 3.812-6.21 7.806-7.16 12.862-1.05 5.6-2.25 11.946-10.22 17.512-7.97 5.567-14.9 4.89-21.01 4.293-5.52-.539-9.88-.964-15.34 2.848-1.78 1.246-4.34.889-5.72-.797-1.38-1.687-1.05-4.065.74-5.311 7.97-5.566 14.9-4.89 21.01-4.293 5.52.539 9.88.965 15.34-2.848 5.46-3.812 6.21-7.806 7.16-12.862 1.05-5.599 2.25-11.946 10.22-17.512 7.97-5.566 14.89-4.889 21.01-4.291 5.51.539 9.87.965 15.33-2.847 5.46-3.812 6.21-7.806 7.16-12.862 1.06-5.6 2.25-11.946 10.22-17.512 7.98-5.567 14.9-4.89 21.01-4.293 5.52.539 9.88.965 15.34-2.848 5.46-3.813 6.21-7.807 7.16-12.863 1.06-5.6 2.25-11.946 10.22-17.513 7.98-5.566 14.9-4.89 21.01-4.293 5.52.539 9.88.965 15.34-2.847 5.46-3.814 6.21-7.808 7.17-12.865 1.05-5.6 2.25-11.947 10.22-17.513 1.78-1.246 4.35-.89 5.72.797 1.38 1.686 1.05 4.064-.74 5.31-5.46 3.814-6.21 7.808-7.16 12.865-1.06 5.6-2.25 11.946-10.22 17.513zm21.17 25.965c-7.97 5.566-14.9 4.89-21.01 4.293-5.52-.539-9.88-.965-15.34 2.848-5.46 3.812-6.21 7.806-7.16 12.863-1.06 5.599-2.25 11.946-10.22 17.512-7.97 5.567-14.9 4.89-21.01 4.293-5.52-.539-9.88-.965-15.34 2.848-5.46 3.812-6.21 7.806-7.16 12.862-1.05 5.6-2.25 11.946-10.22 17.513-7.97 5.565-14.9 4.888-21.01 4.291-5.52-.54-9.88-.966-15.33 2.846-5.46 3.812-6.22 7.806-7.17 12.862-1.05 5.6-2.25 11.946-10.22 17.513-7.97 5.566-14.9 4.89-21.01 4.292-5.52-.538-9.87-.964-15.33 2.848-1.79 1.246-4.35.889-5.73-.797-1.38-1.687-1.04-4.064.74-5.311 7.97-5.566 14.9-4.889 21.01-4.293 5.52.54 9.88.965 15.34-2.847 5.46-3.812 6.21-7.806 7.16-12.863 1.05-5.599 2.25-11.946 10.22-17.512 7.97-5.565 14.9-4.889 21.01-4.291 5.52.539 9.87.966 15.33-2.846 5.46-3.813 6.22-7.807 7.17-12.863 1.05-5.599 2.24-11.946 10.22-17.512 7.97-5.566 14.89-4.89 21.01-4.293 5.51.539 9.87.965 15.33-2.847 5.46-3.813 6.21-7.807 7.17-12.864 1.05-5.599 2.24-11.946 10.22-17.512 7.97-5.567 14.9-4.89 21.01-4.294 5.52.54 9.87.966 15.33-2.847 5.47-3.813 6.22-7.807 7.17-12.865 1.05-5.599 2.25-11.946 10.22-17.513 1.79-1.246 4.35-.889 5.73.797 1.37 1.686 1.04 4.065-.74 5.311-5.46 3.813-6.22 7.807-7.17 12.865-1.05 5.599-2.25 11.946-10.22 17.513zm21.17 25.964c-7.97 5.566-14.9 4.89-21.01 4.293-5.52-.539-9.88-.965-15.34 2.848-5.46 3.813-6.21 7.807-7.16 12.863-1.05 5.6-2.25 11.946-10.22 17.513-7.97 5.566-14.9 4.89-21.01 4.292-5.52-.538-9.88-.965-15.34 2.848-5.46 3.812-6.21 7.806-7.16 12.862-1.05 5.6-2.25 11.946-10.22 17.513-7.97 5.566-14.9 4.888-21.01 4.291-5.51-.539-9.87-.965-15.33 2.847-5.46 3.812-6.21 7.806-7.17 12.862-1.05 5.599-2.24 11.946-10.21 17.512-7.98 5.566-14.9 4.89-21.02 4.293-5.51-.539-9.87-.965-15.33 2.848-1.79 1.246-4.35.889-5.73-.798-1.37-1.687-1.04-4.064.74-5.31 7.97-5.566 14.9-4.89 21.01-4.293 5.52.539 9.88.965 15.34-2.848 5.46-3.812 6.21-7.806 7.16-12.862 1.06-5.6 2.25-11.946 10.22-17.512 7.97-5.566 14.9-4.889 21.01-4.292 5.52.54 9.88.966 15.34-2.846 5.46-3.812 6.21-7.806 7.16-12.863 1.05-5.599 2.25-11.946 10.22-17.512 7.97-5.566 14.9-4.889 21.01-4.293 5.52.54 9.87.965 15.33-2.847 5.47-3.813 6.22-7.807 7.17-12.863 1.05-5.6 2.25-11.946 10.22-17.513 7.97-5.566 14.9-4.89 21.01-4.293 5.52.539 9.88.965 15.34-2.847 5.46-3.814 6.21-7.808 7.16-12.865 1.06-5.6 2.25-11.947 10.22-17.514 1.79-1.246 4.35-.89 5.73.798 1.37 1.686 1.04 4.064-.74 5.31-5.46 3.814-6.21 7.808-7.17 12.865-1.05 5.6-2.25 11.946-10.22 17.513zm20.18 24.741c-7.98 5.566-14.9 4.89-21.01 4.294-5.52-.54-9.88-.966-15.34 2.847-5.46 3.813-6.21 7.807-7.16 12.864-1.06 5.599-2.25 11.946-10.23 17.512-7.97 5.566-14.89 4.89-21 4.293-5.52-.539-9.88-.965-15.34 2.847-5.46 3.813-6.21 7.806-7.16 12.863-1.06 5.599-2.25 11.946-10.22 17.512-7.98 5.566-14.9 4.889-21.01 4.292-5.52-.54-9.88-.966-15.34 2.846-5.46 3.812-6.21 7.806-7.16 12.862-1.05 5.599-2.25 11.946-10.22 17.512-7.97 5.567-14.9 4.89-21.01 4.294-5.52-.54-9.88-.966-15.34 2.847-1.78 1.246-4.34.889-5.72-.797-1.38-1.687-1.05-4.065.74-5.311 7.97-5.566 14.9-4.89 21.01-4.293 5.52.539 9.88.965 15.34-2.848 5.46-3.812 6.21-7.806 7.16-12.862 1.05-5.599 2.25-11.946 10.22-17.512 7.97-5.566 14.9-4.888 21.01-4.291 5.51.539 9.87.965 15.33-2.847 5.46-3.812 6.21-7.806 7.16-12.862 1.06-5.6 2.25-11.946 10.22-17.512 7.98-5.567 14.9-4.89 21.01-4.293 5.52.539 9.88.965 15.34-2.848 5.46-3.813 6.21-7.807 7.16-12.862 1.06-5.601 2.25-11.947 10.22-17.514 7.98-5.566 14.9-4.89 21.01-4.293 5.52.539 9.88.965 15.34-2.847 5.46-3.814 6.21-7.808 7.17-12.865 1.05-5.6 2.25-11.947 10.22-17.513 1.78-1.246 4.35-.889 5.72.797 1.38 1.687 1.05 4.064-.74 5.31-5.46 3.814-6.21 7.808-7.16 12.865-1.06 5.6-2.25 11.946-10.22 17.513zm21.17 25.965c-7.97 5.566-14.9 4.89-21.01 4.293-5.52-.539-9.88-.965-15.34 2.847-5.46 3.813-6.21 7.807-7.16 12.864-1.06 5.599-2.25 11.946-10.22 17.512-7.97 5.567-14.9 4.89-21.01 4.293-5.52-.539-9.88-.965-15.34 2.848-5.46 3.812-6.21 7.806-7.16 12.862-1.06 5.599-2.25 11.946-10.22 17.512-7.97 5.566-14.9 4.889-21.01 4.292-5.52-.54-9.88-.966-15.33 2.846-5.46 3.812-6.22 7.806-7.17 12.863-1.05 5.599-2.25 11.945-10.22 17.511-7.97 5.567-14.9 4.891-21.01 4.294-5.52-.539-9.87-.965-15.33 2.847-1.79 1.246-4.35.89-5.73-.797-1.38-1.686-1.04-4.065.74-5.311 7.97-5.566 14.9-4.889 21.01-4.293 5.52.54 9.88.965 15.34-2.847 5.46-3.813 6.21-7.806 7.16-12.862 1.05-5.6 2.25-11.947 10.22-17.513 7.97-5.565 14.9-4.888 21.01-4.291 5.52.54 9.87.966 15.33-2.846 5.46-3.813 6.21-7.807 7.17-12.863 1.05-5.599 2.24-11.946 10.22-17.512 7.97-5.566 14.89-4.89 21.01-4.293 5.51.539 9.87.965 15.33-2.847 5.46-3.813 6.21-7.807 7.17-12.863 1.05-5.6 2.24-11.947 10.22-17.513 7.97-5.567 14.9-4.89 21.01-4.293 5.51.539 9.87.965 15.33-2.848 5.47-3.813 6.22-7.808 7.17-12.865 1.05-5.599 2.25-11.946 10.22-17.513 1.79-1.246 4.35-.889 5.73.797 1.37 1.687 1.04 4.065-.74 5.311-5.46 3.813-6.22 7.807-7.17 12.864-1.05 5.6-2.25 11.947-10.22 17.514zm21.17 25.965c-7.97 5.566-14.9 4.889-21.01 4.293-5.52-.54-9.87-.965-15.34 2.847-5.46 3.813-6.21 7.807-7.16 12.864-1.05 5.599-2.25 11.946-10.22 17.512-7.97 5.567-14.9 4.89-21.01 4.293-5.52-.539-9.88-.965-15.34 2.848-5.46 3.812-6.21 7.806-7.16 12.862-1.05 5.599-2.25 11.946-10.22 17.512-7.97 5.566-14.9 4.889-21.01 4.291-5.51-.539-9.87-.965-15.33 2.847-5.46 3.812-6.21 7.806-7.16 12.862-1.06 5.6-2.25 11.946-10.22 17.512-7.98 5.567-14.9 4.891-21.01 4.293-5.52-.538-9.88-.964-15.34 2.848-1.79 1.246-4.35.889-5.73-.797-1.37-1.687-1.04-4.065.74-5.311 7.98-5.566 14.9-4.889 21.01-4.293 5.52.54 9.88.965 15.34-2.847 5.46-3.813 6.21-7.806 7.16-12.863 1.06-5.599 2.25-11.946 10.22-17.512 7.97-5.565 14.9-4.889 21.01-4.291 5.52.539 9.88.966 15.34-2.846 5.46-3.813 6.21-7.807 7.16-12.863 1.05-5.6 2.25-11.946 10.22-17.512 7.97-5.567 14.9-4.89 21.01-4.293 5.52.539 9.88.965 15.34-2.847 5.46-3.813 6.21-7.807 7.16-12.864 1.05-5.599 2.25-11.946 10.22-17.512 7.97-5.567 14.9-4.89 21.01-4.294 5.52.54 9.88.966 15.34-2.847 5.46-3.813 6.21-7.808 7.16-12.865 1.06-5.599 2.25-11.946 10.22-17.513 1.79-1.246 4.35-.89 5.73.797 1.38 1.686 1.04 4.065-.74 5.311-5.46 3.813-6.21 7.807-7.17 12.864-1.05 5.6-2.24 11.947-10.22 17.514zm21.17 25.964c-7.97 5.566-14.89 4.89-21.01 4.293-5.51-.539-9.87-.965-15.33 2.848-5.46 3.812-6.22 7.807-7.17 12.863-1.05 5.6-2.25 11.946-10.22 17.513-7.97 5.566-14.9 4.889-21.01 4.292-5.51-.539-9.87-.965-15.33 2.848-5.46 3.812-6.22 7.806-7.17 12.862-1.05 5.6-2.24 11.946-10.22 17.513-7.97 5.565-14.89 4.888-21 4.291-5.52-.539-9.88-.965-15.34 2.846-5.46 3.813-6.21 7.807-7.16 12.862-1.06 5.6-2.25 11.947-10.22 17.513-7.97 5.566-14.9 4.89-21.01 4.293-5.52-.539-9.88-.965-15.34 2.847-1.78 1.247-4.35.889-5.72-.797-1.38-1.687-1.05-4.064.74-5.31 7.97-5.566 14.89-4.89 21.01-4.293 5.51.539 9.87.965 15.33-2.848 5.46-3.812 6.21-7.806 7.17-12.862 1.05-5.6 2.24-11.946 10.22-17.512 7.97-5.566 14.89-4.889 21-4.292 5.52.539 9.88.966 15.34-2.846 5.46-3.813 6.21-7.807 7.16-12.863 1.05-5.599 2.25-11.946 10.22-17.512 7.97-5.566 14.9-4.889 21.01-4.293 5.52.539 9.88.965 15.34-2.847 5.46-3.813 6.21-7.807 7.16-12.863 1.06-5.6 2.25-11.947 10.22-17.513 7.97-5.566 14.9-4.89 21.01-4.293 5.52.539 9.88.965 15.34-2.848 5.46-3.813 6.21-7.807 7.16-12.864 1.06-5.6 2.25-11.947 10.23-17.514 1.78-1.246 4.34-.889 5.72.797 1.38 1.687 1.05 4.065-.74 5.311-5.46 3.813-6.21 7.808-7.16 12.865-1.06 5.599-2.25 11.946-10.23 17.513zm21.18 25.964c-7.98 5.566-14.9 4.89-21.01 4.293-5.52-.539-9.88-.965-15.34 2.848-5.46 3.813-6.21 7.807-7.17 12.863-1.05 5.6-2.24 11.946-10.22 17.513-7.97 5.566-14.89 4.89-21 4.292-5.52-.538-9.88-.964-15.34 2.848-5.46 3.812-6.21 7.806-7.16 12.862-1.06 5.6-2.25 11.947-10.22 17.513-7.98 5.566-14.9 4.889-21.01 4.291-5.52-.539-9.88-.965-15.34 2.847-5.46 3.812-6.21 7.806-7.16 12.862-1.05 5.599-2.25 11.946-10.22 17.512-7.97 5.566-14.9 4.89-21.01 4.293-5.52-.539-9.88-.965-15.34 2.848-1.78 1.246-4.34.889-5.72-.798s-1.05-4.064.74-5.31c7.97-5.566 14.9-4.89 21.01-4.293 5.52.539 9.88.965 15.34-2.848 5.46-3.812 6.21-7.806 7.16-12.862 1.05-5.6 2.25-11.946 10.22-17.512 7.97-5.566 14.89-4.889 21.01-4.292 5.51.54 9.87.966 15.33-2.846 5.46-3.812 6.21-7.806 7.16-12.863 1.06-5.599 2.25-11.945 10.22-17.512 7.98-5.566 14.9-4.889 21.01-4.293 5.52.54 9.88.965 15.34-2.847 5.46-3.813 6.21-7.807 7.16-12.863 1.06-5.6 2.25-11.946 10.22-17.513 7.98-5.566 14.9-4.89 21.01-4.293 5.52.539 9.88.965 15.34-2.847 5.46-3.814 6.21-7.808 7.17-12.865 1.05-5.6 2.25-11.947 10.22-17.514 1.78-1.246 4.35-.89 5.72.798 1.38 1.686 1.05 4.064-.74 5.31-5.46 3.814-6.21 7.808-7.16 12.865-1.06 5.6-2.25 11.946-10.22 17.513zM747.877 792.948c-7.971 5.566-14.898 4.89-21.009 4.293-5.518-.539-9.877-.965-15.338 2.848-5.46 3.812-6.212 7.807-7.164 12.863-1.053 5.6-2.248 11.946-10.22 17.513-7.972 5.566-14.898 4.889-21.01 4.293-5.518-.54-9.876-.966-15.337 2.847-5.46 3.812-6.211 7.806-7.162 12.863-1.054 5.599-2.248 11.945-10.221 17.512-7.971 5.565-14.896 4.888-21.007 4.291-5.517-.539-9.876-.965-15.335 2.846-5.46 3.813-6.212 7.807-7.163 12.863-1.053 5.599-2.248 11.946-10.22 17.512-7.972 5.566-14.898 4.89-21.01 4.293-5.518-.539-9.876-.965-15.337 2.848-1.785 1.246-4.348.889-5.724-.798-1.377-1.686-1.045-4.064.739-5.31 7.972-5.566 14.898-4.89 21.01-4.293 5.518.539 9.877.965 15.337-2.848 5.46-3.812 6.212-7.806 7.163-12.862 1.053-5.6 2.248-11.946 10.22-17.512 7.971-5.566 14.897-4.889 21.008-4.292 5.517.54 9.875.966 15.334-2.846 5.461-3.813 6.212-7.806 7.164-12.862 1.053-5.6 2.248-11.947 10.219-17.513 7.973-5.566 14.898-4.889 21.01-4.292 5.518.539 9.877.964 15.337-2.848 5.461-3.813 6.212-7.807 7.164-12.863 1.053-5.6 2.248-11.946 10.22-17.513 7.973-5.566 14.899-4.89 21.011-4.293 5.517.539 9.876.965 15.337-2.848 5.461-3.813 6.213-7.807 7.165-12.864 1.054-5.6 2.249-11.947 10.222-17.514 1.785-1.246 4.348-.889 5.725.798 1.376 1.686 1.045 4.064-.74 5.31-5.462 3.813-6.213 7.808-7.166 12.865-1.054 5.599-2.248 11.946-10.222 17.513zm21.173 25.965c-7.972 5.566-14.898 4.889-21.01 4.293-5.518-.54-9.877-.965-15.337 2.847-5.461 3.813-6.213 7.807-7.164 12.864-1.054 5.599-2.249 11.946-10.221 17.512-7.972 5.567-14.898 4.89-21.009 4.293-5.518-.539-9.877-.965-15.337 2.847-5.46 3.813-6.212 7.807-7.163 12.863-1.053 5.599-2.248 11.946-10.22 17.512-7.971 5.566-14.897 4.889-21.007 4.292-5.518-.54-9.877-.966-15.336 2.846-5.46 3.812-6.211 7.806-7.162 12.862-1.054 5.6-2.249 11.946-10.22 17.512-7.973 5.567-14.899 4.89-21.01 4.294-5.518-.54-9.877-.966-15.338 2.847-1.784 1.246-4.347.889-5.724-.797-1.376-1.687-1.045-4.065.74-5.311 7.971-5.566 14.898-4.89 21.009-4.293 5.518.539 9.877.965 15.338-2.848 5.46-3.812 6.211-7.806 7.163-12.862 1.053-5.599 2.247-11.946 10.219-17.512 7.971-5.566 14.897-4.888 21.008-4.291 5.518.539 9.875.965 15.335-2.847 5.46-3.812 6.212-7.806 7.163-12.862 1.053-5.6 2.248-11.946 10.22-17.512 7.972-5.567 14.898-4.89 21.009-4.293 5.518.539 9.877.965 15.337-2.848 5.461-3.813 6.213-7.806 7.164-12.862 1.054-5.601 2.248-11.947 10.221-17.513 7.972-5.567 14.898-4.891 21.01-4.293 5.518.538 9.876.964 15.337-2.848 5.461-3.814 6.213-7.808 7.165-12.865 1.055-5.6 2.25-11.947 10.223-17.513 1.784-1.246 4.348-.889 5.724.797 1.377 1.687 1.045 4.064-.74 5.31-5.461 3.814-6.213 7.808-7.165 12.865-1.054 5.6-2.249 11.946-10.222 17.514zm87.983-303.98c-7.972 5.566-14.898 4.889-21.009 4.293-5.519-.54-9.878-.965-15.338 2.847-5.461 3.813-6.213 7.807-7.164 12.864-1.054 5.599-2.248 11.946-10.221 17.512-7.972 5.567-14.898 4.89-21.009 4.293-5.518-.539-9.877-.965-15.337 2.847-5.46 3.813-6.211 7.807-7.163 12.863-1.053 5.599-2.248 11.946-10.22 17.512-7.971 5.566-14.897 4.889-21.007 4.292-5.518-.54-9.877-.966-15.336 2.846-5.46 3.812-6.211 7.806-7.162 12.862-1.054 5.6-2.248 11.946-10.22 17.512-7.973 5.567-14.899 4.89-21.01 4.294-5.518-.54-9.877-.966-15.337 2.847-1.785 1.246-4.348.889-5.725-.797-1.376-1.687-1.045-4.065.74-5.311 7.971-5.566 14.898-4.89 21.009-4.293 5.518.539 9.877.965 15.338-2.847 5.46-3.813 6.211-7.807 7.163-12.862 1.053-5.6 2.247-11.947 10.219-17.513 7.971-5.566 14.898-4.888 21.008-4.291 5.518.539 9.876.965 15.335-2.847 5.46-3.812 6.212-7.806 7.163-12.862 1.053-5.6 2.248-11.946 10.22-17.512 7.972-5.567 14.898-4.89 21.01-4.293 5.517.539 9.876.965 15.336-2.848 5.461-3.813 6.213-7.806 7.164-12.862 1.054-5.601 2.249-11.947 10.221-17.513 7.972-5.567 14.899-4.891 21.01-4.293 5.518.538 9.877.964 15.337-2.848 5.462-3.814 6.213-7.808 7.166-12.865 1.054-5.6 2.249-11.947 10.222-17.513 1.784-1.246 4.348-.889 5.724.797 1.377 1.687 1.045 4.064-.739 5.31-5.462 3.814-6.214 7.808-7.166 12.865-1.054 5.6-2.249 11.946-10.222 17.514zm21.173 25.964c-7.972 5.566-14.899 4.89-21.01 4.293-5.518-.539-9.877-.965-15.338 2.848-5.46 3.812-6.212 7.806-7.164 12.863-1.053 5.599-2.248 11.946-10.22 17.512-7.972 5.567-14.898 4.89-21.009 4.293-5.519-.539-9.877-.965-15.338 2.848-5.46 3.812-6.211 7.806-7.162 12.862-1.054 5.599-2.248 11.946-10.221 17.512-7.971 5.566-14.896 4.889-21.007 4.292-5.517-.54-9.876-.966-15.335 2.846-5.46 3.812-6.212 7.806-7.163 12.863-1.053 5.599-2.248 11.945-10.22 17.511-7.972 5.567-14.898 4.891-21.01 4.294-5.518-.539-9.876-.965-15.337 2.847-1.784 1.246-4.348.89-5.724-.797-1.376-1.686-1.045-4.065.739-5.311 7.972-5.566 14.898-4.889 21.01-4.293 5.518.54 9.877.965 15.337-2.847 5.46-3.812 6.212-7.806 7.163-12.862 1.053-5.6 2.248-11.947 10.22-17.513 7.971-5.565 14.897-4.888 21.008-4.291 5.518.54 9.875.966 15.335-2.846 5.46-3.813 6.211-7.807 7.163-12.863 1.053-5.599 2.248-11.946 10.219-17.512 7.973-5.566 14.899-4.89 21.01-4.293 5.518.539 9.877.965 15.337-2.847 5.461-3.813 6.212-7.807 7.164-12.863 1.054-5.6 2.248-11.947 10.22-17.513 7.973-5.567 14.899-4.89 21.011-4.293 5.518.539 9.876.965 15.337-2.848 5.461-3.813 6.213-7.808 7.165-12.865 1.054-5.599 2.249-11.946 10.222-17.513 1.785-1.246 4.348-.889 5.725.797 1.376 1.687 1.045 4.065-.74 5.311-5.461 3.813-6.213 7.807-7.165 12.864-1.055 5.6-2.249 11.947-10.222 17.514zm21.172 25.965c-7.971 5.566-14.898 4.889-21.009 4.293-5.518-.54-9.877-.965-15.338 2.847-5.46 3.813-6.212 7.807-7.164 12.863-1.053 5.6-2.248 11.947-10.22 17.513-7.973 5.567-14.898 4.89-21.01 4.293-5.518-.539-9.876-.965-15.337 2.848-5.46 3.812-6.211 7.806-7.163 12.862-1.053 5.599-2.247 11.946-10.22 17.512-7.971 5.566-14.896 4.889-21.007 4.291-5.518-.539-9.876-.965-15.336 2.847-5.459 3.812-6.211 7.806-7.162 12.862-1.053 5.6-2.248 11.946-10.22 17.512-7.972 5.567-14.898 4.89-21.01 4.293-5.518-.539-9.877-.964-15.337 2.848-1.785 1.246-4.348.889-5.724-.797-1.377-1.687-1.045-4.065.739-5.311 7.972-5.566 14.898-4.889 21.01-4.293 5.518.54 9.877.965 15.337-2.847 5.46-3.813 6.211-7.807 7.163-12.863 1.053-5.599 2.248-11.946 10.22-17.512 7.971-5.565 14.897-4.889 21.008-4.291 5.517.539 9.875.965 15.334-2.846 5.461-3.813 6.212-7.807 7.163-12.863 1.054-5.6 2.249-11.946 10.22-17.512 7.973-5.567 14.898-4.89 21.01-4.293 5.518.539 9.877.965 15.337-2.847 5.461-3.813 6.212-7.807 7.163-12.864 1.054-5.599 2.249-11.946 10.221-17.512 7.973-5.567 14.899-4.89 21.01-4.294 5.518.539 9.877.966 15.337-2.847 5.462-3.813 6.214-7.808 7.166-12.865 1.054-5.599 2.249-11.946 10.222-17.513 1.785-1.246 4.348-.89 5.725.797 1.376 1.686 1.045 4.064-.74 5.311-5.462 3.813-6.213 7.807-7.166 12.864-1.054 5.6-2.248 11.946-10.222 17.514zm21.173 25.964c-7.972 5.566-14.898 4.89-21.009 4.293-5.519-.539-9.878-.965-15.338 2.848-5.461 3.812-6.212 7.807-7.165 12.863-1.053 5.6-2.247 11.946-10.22 17.513-7.972 5.566-14.898 4.889-21.009 4.292-5.518-.539-9.877-.965-15.337 2.848-5.46 3.812-6.211 7.806-7.163 12.862-1.053 5.6-2.248 11.946-10.22 17.513-7.971 5.565-14.897 4.888-21.008 4.291-5.517-.539-9.876-.966-15.335 2.846-5.46 3.813-6.211 7.806-7.163 12.862-1.053 5.6-2.247 11.947-10.219 17.513-7.972 5.566-14.899 4.89-21.01 4.293-5.518-.539-9.877-.965-15.337 2.847-1.785 1.246-4.349.889-5.725-.797-1.376-1.687-1.045-4.064.74-5.31 7.972-5.566 14.898-4.89 21.009-4.293 5.518.539 9.877.965 15.338-2.848 5.46-3.812 6.211-7.806 7.162-12.863 1.054-5.599 2.248-11.945 10.22-17.511 7.971-5.566 14.897-4.889 21.008-4.292 5.518.539 9.876.966 15.335-2.846 5.461-3.813 6.212-7.807 7.163-12.863 1.054-5.599 2.248-11.946 10.22-17.512 7.972-5.566 14.898-4.89 21.009-4.293 5.518.539 9.878.965 15.338-2.847 5.461-3.813 6.212-7.807 7.163-12.863 1.054-5.6 2.249-11.947 10.221-17.513 7.972-5.566 14.899-4.89 21.01-4.293 5.518.539 9.877.965 15.337-2.848 5.462-3.813 6.213-7.807 7.166-12.864 1.054-5.6 2.249-11.947 10.222-17.514 1.784-1.246 4.348-.889 5.724.797 1.376 1.687 1.045 4.065-.739 5.311-5.462 3.813-6.214 7.808-7.166 12.865-1.054 5.599-2.249 11.946-10.222 17.513zm21.172 25.964c-7.971 5.566-14.898 4.89-21.009 4.293-5.518-.539-9.877-.965-15.338 2.848-5.46 3.813-6.212 7.807-7.164 12.863-1.053 5.6-2.248 11.946-10.22 17.513-7.973 5.566-14.898 4.89-21.01 4.292-5.518-.538-9.876-.964-15.337 2.848-5.46 3.812-6.211 7.806-7.163 12.862-1.053 5.6-2.247 11.947-10.22 17.513-7.971 5.566-14.896 4.889-21.007 4.291-5.518-.539-9.876-.965-15.336 2.847-5.459 3.812-6.211 7.806-7.162 12.862-1.053 5.599-2.248 11.946-10.22 17.512-7.972 5.566-14.898 4.89-21.01 4.293-5.518-.539-9.877-.965-15.337 2.848-1.785 1.246-4.348.889-5.724-.798-1.377-1.687-1.045-4.064.739-5.31 7.972-5.566 14.898-4.89 21.01-4.293 5.518.539 9.877.965 15.337-2.848 5.46-3.812 6.211-7.806 7.163-12.862 1.053-5.6 2.248-11.946 10.22-17.512 7.971-5.566 14.897-4.889 21.008-4.292 5.517.54 9.875.966 15.334-2.846 5.461-3.812 6.212-7.806 7.163-12.863 1.054-5.599 2.249-11.945 10.22-17.512 7.973-5.566 14.898-4.889 21.01-4.293 5.518.54 9.877.965 15.337-2.847 5.461-3.813 6.212-7.807 7.163-12.863 1.054-5.6 2.249-11.946 10.221-17.513 7.973-5.566 14.899-4.89 21.01-4.293 5.518.539 9.877.965 15.337-2.847 5.462-3.814 6.214-7.808 7.166-12.865 1.054-5.6 2.249-11.947 10.222-17.514 1.785-1.246 4.347-.89 5.725.798 1.376 1.686 1.045 4.064-.74 5.31-5.462 3.814-6.213 7.808-7.166 12.865-1.054 5.6-2.248 11.946-10.222 17.513z"/><path d="M1072.79 364.151c-7.97 5.566-14.89 4.89-21.01 4.293-5.51-.539-9.87-.965-15.33 2.848-5.46 3.812-6.22 7.807-7.17 12.863-1.05 5.6-2.25 11.946-10.22 17.513-7.97 5.566-14.9 4.889-21.007 4.293-5.518-.54-9.877-.966-15.337 2.847-5.46 3.812-6.211 7.806-7.163 12.862-1.053 5.6-2.248 11.946-10.22 17.513-7.971 5.565-14.896 4.888-21.007 4.291-5.518-.539-9.876-.965-15.336 2.846-5.46 3.813-6.211 7.807-7.162 12.863-1.054 5.599-2.248 11.946-10.22 17.512-7.972 5.566-14.899 4.89-21.01 4.293-5.518-.539-9.877-.965-15.337 2.847-1.785 1.246-4.348.89-5.725-.797-1.376-1.686-1.045-4.064.74-5.31 7.972-5.566 14.898-4.89 21.009-4.293 5.518.539 9.878.965 15.338-2.848 5.46-3.812 6.211-7.806 7.163-12.862 1.053-5.6 2.248-11.946 10.219-17.512 7.972-5.566 14.898-4.889 21.008-4.292 5.518.54 9.876.966 15.335-2.846 5.461-3.813 6.212-7.806 7.163-12.862 1.054-5.6 2.248-11.947 10.22-17.513 7.972-5.566 14.898-4.889 21.01-4.292 5.519.538 9.879.964 15.339-2.848 5.46-3.813 6.21-7.807 7.16-12.863 1.06-5.6 2.25-11.946 10.22-17.513 7.97-5.566 14.9-4.89 21.01-4.293 5.52.539 9.88.965 15.34-2.848 5.46-3.813 6.21-7.807 7.16-12.864 1.06-5.6 2.25-11.947 10.23-17.514 1.78-1.246 4.34-.889 5.72.797 1.38 1.687 1.05 4.065-.74 5.311-5.46 3.813-6.21 7.808-7.16 12.865-1.06 5.599-2.25 11.946-10.23 17.513zm21.18 25.965c-7.98 5.566-14.9 4.889-21.01 4.293-5.52-.54-9.88-.965-15.34 2.847-5.46 3.813-6.21 7.807-7.16 12.864-1.06 5.599-2.25 11.946-10.23 17.512-7.97 5.567-14.89 4.89-21 4.293-5.52-.539-9.88-.965-15.34 2.847-5.462 3.813-6.213 7.807-7.164 12.863-1.054 5.599-2.248 11.946-10.221 17.512-7.971 5.566-14.896 4.889-21.007 4.292-5.517-.54-9.876-.966-15.335 2.846-5.46 3.812-6.212 7.806-7.163 12.862-1.053 5.6-2.248 11.946-10.22 17.512-7.972 5.567-14.898 4.89-21.01 4.294-5.518-.54-9.876-.966-15.337 2.847-1.784 1.246-4.348.889-5.724-.797-1.376-1.687-1.045-4.065.739-5.311 7.972-5.566 14.898-4.89 21.01-4.293 5.518.539 9.877.965 15.337-2.847 5.46-3.813 6.212-7.807 7.163-12.862 1.053-5.6 2.248-11.947 10.22-17.513 7.971-5.566 14.897-4.888 21.008-4.291 5.518.539 9.875.965 15.335-2.847 5.46-3.812 6.211-7.806 7.163-12.862 1.053-5.6 2.248-11.946 10.219-17.512 7.977-5.567 14.897-4.89 21.007-4.293 5.52.539 9.88.965 15.34-2.848 5.46-3.813 6.21-7.806 7.16-12.862 1.06-5.6 2.25-11.947 10.22-17.513 7.98-5.567 14.9-4.891 21.01-4.293 5.52.538 9.88.964 15.34-2.848 5.46-3.814 6.21-7.808 7.17-12.865 1.05-5.6 2.25-11.946 10.22-17.513 1.78-1.246 4.35-.889 5.72.797 1.38 1.687 1.05 4.064-.74 5.31-5.46 3.814-6.21 7.808-7.16 12.865-1.06 5.6-2.25 11.946-10.22 17.514zm21.17 25.965c-7.97 5.566-14.9 4.889-21.01 4.293-5.52-.54-9.88-.965-15.34 2.847-5.46 3.813-6.21 7.807-7.16 12.863-1.06 5.6-2.25 11.947-10.22 17.513-7.97 5.567-14.9 4.89-21.01 4.293-5.52-.539-9.88-.965-15.34 2.847-5.46 3.813-6.21 7.807-7.16 12.862-1.05 5.6-2.25 11.947-10.22 17.513-7.973 5.566-14.898 4.889-21.009 4.291-5.518-.539-9.876-.965-15.336 2.847-5.46 3.812-6.211 7.806-7.162 12.862-1.053 5.6-2.248 11.946-10.22 17.512-7.972 5.567-14.898 4.89-21.01 4.293-5.518-.539-9.877-.964-15.337 2.848-1.785 1.246-4.348.889-5.724-.797-1.377-1.687-1.045-4.065.739-5.311 7.972-5.566 14.898-4.89 21.01-4.293 5.518.539 9.877.965 15.337-2.848 5.46-3.812 6.211-7.806 7.163-12.862 1.053-5.599 2.248-11.946 10.22-17.512 7.971-5.566 14.897-4.889 21.008-4.291 5.517.539 9.875.965 15.331-2.847 5.46-3.812 6.22-7.806 7.17-12.862 1.05-5.6 2.24-11.946 10.22-17.512 7.97-5.567 14.89-4.89 21.01-4.293 5.51.539 9.87.965 15.33-2.848 5.46-3.813 6.22-7.806 7.17-12.863 1.05-5.599 2.24-11.946 10.22-17.512 7.97-5.567 14.9-4.891 21.01-4.294 5.52.539 9.87.965 15.33-2.847 5.47-3.814 6.22-7.808 7.17-12.865 1.05-5.6 2.25-11.946 10.22-17.513 1.79-1.246 4.35-.89 5.73.797 1.37 1.686 1.04 4.064-.74 5.31-5.46 3.814-6.22 7.808-7.17 12.865-1.05 5.6-2.25 11.946-10.22 17.514zm21.17 25.964c-7.97 5.566-14.9 4.89-21.01 4.293-5.52-.539-9.88-.965-15.34 2.848-5.46 3.812-6.21 7.806-7.16 12.863-1.05 5.6-2.25 11.946-10.22 17.512-7.97 5.567-14.9 4.89-21.01 4.293-5.52-.539-9.88-.965-15.34 2.848-5.46 3.812-6.21 7.806-7.16 12.862-1.05 5.6-2.25 11.946-10.22 17.513-7.97 5.565-14.9 4.888-21.01 4.291-5.51-.54-9.873-.966-15.332 2.846-5.46 3.812-6.211 7.806-7.163 12.862-1.053 5.6-2.248 11.947-10.219 17.513-7.973 5.566-14.899 4.89-21.011 4.293-5.518-.539-9.877-.965-15.337 2.847-1.784 1.246-4.348.889-5.724-.797-1.377-1.687-1.045-4.064.74-5.31 7.971-5.567 14.898-4.89 21.009-4.294 5.518.54 9.877.965 15.338-2.847 5.46-3.812 6.211-7.806 7.162-12.863 1.054-5.599 2.248-11.945 10.22-17.512 7.971-5.565 14.897-4.889 21.007-4.291 5.52.539 9.88.966 15.34-2.846 5.46-3.813 6.21-7.807 7.16-12.863 1.05-5.599 2.25-11.946 10.22-17.512 7.97-5.566 14.9-4.89 21.01-4.293 5.52.539 9.88.965 15.34-2.847 5.46-3.813 6.21-7.807 7.16-12.864 1.05-5.599 2.25-11.946 10.22-17.512 7.97-5.567 14.9-4.89 21.01-4.294 5.52.54 9.88.966 15.34-2.847 5.46-3.813 6.21-7.807 7.16-12.865 1.06-5.599 2.25-11.946 10.22-17.513 1.79-1.246 4.35-.889 5.73.797 1.38 1.687 1.04 4.065-.74 5.311-5.46 3.813-6.21 7.807-7.17 12.865-1.05 5.599-2.24 11.946-10.22 17.513zm21.17 25.964c-7.97 5.566-14.89 4.89-21.01 4.293-5.51-.539-9.87-.965-15.33 2.848-5.46 3.812-6.22 7.807-7.17 12.863-1.05 5.6-2.25 11.946-10.22 17.513-7.97 5.566-14.9 4.889-21.01 4.292-5.52-.539-9.87-.965-15.33 2.848-5.46 3.812-6.22 7.806-7.17 12.862-1.05 5.6-2.24 11.946-10.22 17.513-7.97 5.565-14.89 4.888-21 4.291-5.52-.539-9.88-.965-15.34 2.846-5.46 3.813-6.21 7.807-7.16 12.862-1.06 5.6-2.25 11.947-10.222 17.513-7.972 5.566-14.899 4.89-21.01 4.293-5.518-.539-9.877-.965-15.337 2.847-1.785 1.247-4.348.89-5.725-.797-1.377-1.687-1.045-4.064.74-5.31 7.972-5.566 14.898-4.89 21.009-4.293 5.518.539 9.878.965 15.338-2.848 5.46-3.812 6.211-7.806 7.162-12.862 1.054-5.6 2.245-11.946 10.225-17.512 7.97-5.566 14.89-4.889 21-4.292 5.52.539 9.88.966 15.34-2.846 5.46-3.813 6.21-7.806 7.16-12.863 1.05-5.599 2.25-11.946 10.22-17.512 7.97-5.566 14.9-4.889 21.01-4.293 5.52.54 9.88.965 15.34-2.847 5.46-3.813 6.21-7.807 7.16-12.863 1.06-5.6 2.25-11.946 10.22-17.513 7.97-5.566 14.9-4.89 21.01-4.293 5.52.539 9.88.965 15.34-2.848 5.46-3.813 6.21-7.807 7.16-12.864 1.06-5.6 2.25-11.947 10.23-17.514 1.78-1.246 4.34-.89 5.72.797s1.05 4.065-.74 5.311c-5.46 3.813-6.21 7.808-7.16 12.865-1.06 5.599-2.25 11.946-10.23 17.513z"/><path d="M1288.55 213.37c-7.97 5.566-14.89 4.89-21 4.293-5.52-.539-9.88-.965-15.34 2.848-5.46 3.812-6.21 7.807-7.17 12.863-1.05 5.6-2.24 11.946-10.22 17.513-7.97 5.566-14.9 4.889-21.01 4.293-5.51-.54-9.87-.966-15.33 2.847-5.46 3.812-6.21 7.806-7.17 12.862-1.05 5.6-2.24 11.946-10.22 17.513-7.97 5.565-14.89 4.888-21 4.291-5.52-.54-9.88-.966-15.34 2.846-5.46 3.813-6.21 7.806-7.16 12.863-1.06 5.599-2.25 11.946-10.22 17.512-7.97 5.566-14.9 4.89-21.01 4.293-5.52-.539-9.88-.965-15.34 2.847-1.78 1.246-4.35.89-5.72-.797-1.38-1.686-1.05-4.064.74-5.31 7.97-5.566 14.89-4.89 21.01-4.293 5.51.539 9.87.965 15.33-2.848 5.46-3.812 6.21-7.806 7.17-12.862 1.05-5.6 2.24-11.946 10.22-17.512 7.97-5.566 14.89-4.889 21-4.292 5.52.54 9.88.966 15.34-2.846 5.46-3.813 6.21-7.807 7.16-12.863 1.06-5.599 2.25-11.946 10.22-17.512 7.97-5.566 14.9-4.89 21.01-4.292 5.52.538 9.88.964 15.34-2.848 5.46-3.813 6.21-7.807 7.16-12.863 1.06-5.6 2.25-11.947 10.22-17.513 7.97-5.566 14.9-4.89 21.01-4.293 5.52.539 9.88.965 15.34-2.848 5.46-3.813 6.21-7.807 7.17-12.865 1.05-5.599 2.24-11.946 10.22-17.513 1.78-1.246 4.35-.889 5.72.797 1.38 1.687 1.05 4.065-.74 5.311-5.46 3.813-6.21 7.807-7.16 12.865-1.06 5.599-2.25 11.946-10.23 17.513zm21.18 25.964c-7.97 5.566-14.9 4.89-21.01 4.294-5.52-.54-9.88-.966-15.34 2.847-5.46 3.813-6.21 7.807-7.16 12.864-1.06 5.599-2.25 11.946-10.22 17.512-7.98 5.566-14.9 4.89-21.01 4.293-5.52-.539-9.88-.965-15.34 2.847-5.46 3.813-6.21 7.806-7.16 12.863-1.06 5.599-2.25 11.946-10.22 17.512-7.98 5.566-14.9 4.889-21.01 4.292-5.52-.54-9.88-.966-15.34 2.846-5.46 3.812-6.21 7.806-7.16 12.862-1.05 5.6-2.25 11.946-10.22 17.512-7.97 5.567-14.9 4.89-21.01 4.294-5.52-.54-9.88-.966-15.34 2.847-1.78 1.246-4.34.889-5.72-.797-1.38-1.687-1.05-4.065.74-5.311 7.97-5.566 14.9-4.89 21.01-4.293 5.52.539 9.88.965 15.34-2.848 5.46-3.812 6.21-7.806 7.16-12.862 1.05-5.599 2.25-11.946 10.22-17.512 7.97-5.566 14.9-4.888 21.01-4.291 5.51.539 9.87.965 15.33-2.847 5.46-3.812 6.21-7.806 7.16-12.862 1.06-5.6 2.25-11.946 10.22-17.512 7.98-5.567 14.9-4.89 21.01-4.293 5.52.539 9.88.964 15.34-2.848 5.46-3.813 6.21-7.807 7.16-12.862 1.06-5.601 2.25-11.947 10.22-17.514 7.98-5.566 14.9-4.89 21.02-4.293 5.51.539 9.87.965 15.33-2.847 5.46-3.814 6.22-7.808 7.17-12.865 1.05-5.6 2.25-11.947 10.22-17.513 1.78-1.247 4.35-.889 5.72.797 1.38 1.687 1.05 4.064-.74 5.31-5.46 3.814-6.21 7.808-7.16 12.865-1.06 5.6-2.25 11.946-10.22 17.513zm21.17 25.965c-7.97 5.566-14.9 4.89-21.01 4.293-5.52-.539-9.88-.965-15.34 2.848-5.46 3.813-6.21 7.807-7.16 12.863-1.05 5.6-2.25 11.947-10.22 17.513-7.97 5.566-14.9 4.89-21.01 4.293-5.52-.539-9.88-.965-15.34 2.847-5.46 3.813-6.21 7.806-7.16 12.862-1.05 5.6-2.25 11.947-10.22 17.513-7.97 5.566-14.9 4.889-21.01 4.291-5.52-.539-9.87-.965-15.33 2.847-5.46 3.812-6.22 7.806-7.17 12.862-1.05 5.599-2.24 11.946-10.22 17.512-7.97 5.566-14.89 4.89-21.01 4.293-5.51-.539-9.87-.964-15.33 2.848-1.79 1.246-4.35.889-5.73-.797-1.37-1.687-1.04-4.065.74-5.311 7.97-5.566 14.9-4.89 21.01-4.293 5.52.539 9.88.965 15.34-2.848 5.46-3.812 6.21-7.806 7.16-12.862 1.05-5.599 2.25-11.946 10.22-17.512 7.97-5.566 14.9-4.889 21.01-4.291 5.52.539 9.87.965 15.33-2.847 5.46-3.812 6.22-7.806 7.17-12.863 1.05-5.599 2.24-11.945 10.22-17.511 7.97-5.567 14.89-4.89 21.01-4.294 5.51.54 9.87.965 15.33-2.847 5.46-3.813 6.22-7.807 7.17-12.863 1.05-5.6 2.25-11.946 10.22-17.513 7.97-5.566 14.9-4.89 21.01-4.293 5.52.539 9.87.965 15.33-2.847 5.47-3.814 6.22-7.808 7.17-12.865 1.05-5.6 2.25-11.947 10.22-17.513 1.79-1.247 4.35-.89 5.73.797 1.37 1.686 1.04 4.064-.74 5.31-5.46 3.814-6.22 7.808-7.17 12.865-1.05 5.6-2.25 11.946-10.22 17.513zm21.17 25.965c-7.97 5.566-14.9 4.889-21.01 4.293-5.52-.54-9.87-.965-15.34 2.847-5.46 3.813-6.21 7.807-7.16 12.863-1.05 5.6-2.25 11.947-10.22 17.513-7.97 5.567-14.9 4.89-21.01 4.293-5.52-.539-9.88-.965-15.34 2.848-5.46 3.812-6.21 7.806-7.16 12.862-1.05 5.599-2.25 11.946-10.22 17.512-7.97 5.566-14.9 4.889-21.01 4.291-5.51-.539-9.87-.965-15.33 2.847-5.46 3.812-6.21 7.806-7.16 12.862-1.06 5.6-2.25 11.946-10.22 17.512-7.98 5.567-14.9 4.89-21.01 4.293-5.52-.539-9.88-.964-15.34 2.848-1.79 1.246-4.35.889-5.73-.797-1.37-1.687-1.04-4.065.74-5.311 7.98-5.566 14.9-4.889 21.01-4.293 5.52.539 9.88.965 15.34-2.847 5.46-3.813 6.21-7.807 7.16-12.863 1.06-5.599 2.25-11.946 10.22-17.512 7.97-5.565 14.9-4.889 21.01-4.291 5.52.539 9.88.965 15.34-2.846 5.46-3.813 6.21-7.807 7.16-12.863 1.05-5.6 2.25-11.946 10.22-17.512 7.97-5.567 14.9-4.89 21.01-4.293 5.52.539 9.88.965 15.34-2.848 5.46-3.813 6.21-7.806 7.16-12.863 1.05-5.599 2.25-11.946 10.22-17.512 7.97-5.567 14.9-4.891 21.01-4.294 5.52.539 9.88.966 15.34-2.847 5.46-3.813 6.21-7.808 7.16-12.865 1.06-5.6 2.25-11.946 10.22-17.513 1.79-1.246 4.35-.89 5.73.797 1.38 1.686 1.04 4.064-.74 5.31-5.46 3.814-6.21 7.808-7.17 12.865-1.05 5.6-2.24 11.946-10.22 17.514zm21.17 25.964c-7.97 5.566-14.89 4.89-21 4.293-5.52-.539-9.88-.965-15.34 2.848-5.46 3.812-6.21 7.807-7.17 12.863-1.05 5.6-2.24 11.946-10.22 17.513-7.97 5.566-14.9 4.889-21.01 4.292-5.51-.539-9.87-.965-15.33 2.848-5.46 3.812-6.21 7.806-7.17 12.862-1.05 5.6-2.24 11.946-10.22 17.513-7.97 5.565-14.89 4.888-21 4.291-5.52-.539-9.88-.966-15.34 2.846-5.46 3.813-6.21 7.806-7.16 12.862-1.06 5.6-2.25 11.947-10.22 17.513-7.97 5.566-14.9 4.89-21.01 4.293-5.52-.539-9.88-.965-15.34 2.847-1.78 1.246-4.35.889-5.72-.797-1.38-1.687-1.05-4.064.74-5.31 7.97-5.566 14.89-4.89 21.01-4.293 5.51.539 9.87.965 15.33-2.848 5.46-3.812 6.21-7.806 7.17-12.863 1.05-5.599 2.24-11.945 10.22-17.511 7.97-5.566 14.89-4.889 21-4.292 5.52.539 9.88.966 15.34-2.846 5.46-3.813 6.21-7.807 7.16-12.863 1.06-5.599 2.25-11.946 10.22-17.512 7.97-5.566 14.9-4.89 21.01-4.293 5.52.539 9.88.965 15.34-2.847 5.46-3.813 6.21-7.807 7.16-12.863 1.06-5.6 2.25-11.947 10.22-17.513 7.97-5.566 14.9-4.89 21.01-4.293 5.52.539 9.88.965 15.34-2.848 5.46-3.813 6.21-7.807 7.17-12.864 1.05-5.6 2.24-11.947 10.22-17.514 1.78-1.246 4.34-.89 5.72.797s1.05 4.065-.74 5.311c-5.46 3.813-6.21 7.808-7.16 12.865-1.06 5.599-2.25 11.946-10.23 17.513zm235.64-125.798c-7.97 5.566-14.9 4.89-21.01 4.293-5.52-.539-9.88-.965-15.34 2.848-5.46 3.813-6.21 7.807-7.16 12.864-1.06 5.599-2.25 11.945-10.22 17.512-7.98 5.566-14.9 4.89-21.01 4.293-5.52-.539-9.88-.965-15.34 2.847-5.46 3.812-6.21 7.806-7.16 12.863-1.06 5.599-2.25 11.945-10.22 17.512-7.98 5.566-14.9 4.888-21.01 4.291-5.52-.539-9.88-.965-15.34 2.847-5.46 3.812-6.21 7.806-7.16 12.862-1.05 5.599-2.25 11.946-10.22 17.512-7.97 5.566-14.9 4.89-21.01 4.293-5.52-.539-9.88-.965-15.34 2.848-1.78 1.246-4.34.889-5.72-.798-1.38-1.686-1.05-4.064.74-5.31 7.97-5.566 14.9-4.89 21.01-4.293 5.52.539 9.88.965 15.34-2.848 5.46-3.812 6.21-7.806 7.16-12.862 1.05-5.6 2.25-11.946 10.22-17.512 7.97-5.566 14.9-4.889 21.01-4.292 5.51.54 9.87.966 15.33-2.846 5.46-3.812 6.21-7.806 7.16-12.862 1.06-5.6 2.25-11.947 10.22-17.513 7.98-5.566 14.9-4.889 21.01-4.292 5.52.539 9.88.964 15.34-2.848 5.46-3.813 6.21-7.807 7.16-12.863 1.06-5.6 2.25-11.946 10.22-17.513 7.98-5.566 14.9-4.89 21.02-4.293 5.51.539 9.87.965 15.33-2.847 5.46-3.814 6.22-7.808 7.17-12.865 1.05-5.6 2.25-11.947 10.22-17.514 1.78-1.246 4.35-.889 5.72.798 1.38 1.686 1.05 4.064-.74 5.31-5.46 3.814-6.21 7.808-7.16 12.865-1.06 5.6-2.25 11.946-10.22 17.513zm21.17 25.965c-7.97 5.566-14.9 4.889-21.01 4.293-5.52-.54-9.88-.965-15.34 2.847-5.46 3.813-6.21 7.807-7.16 12.864-1.06 5.599-2.25 11.946-10.22 17.512-7.97 5.567-14.9 4.89-21.01 4.293-5.52-.539-9.88-.965-15.34 2.848-5.46 3.812-6.21 7.806-7.16 12.862-1.06 5.599-2.25 11.946-10.22 17.512-7.97 5.566-14.9 4.889-21.01 4.292-5.52-.54-9.88-.966-15.33 2.846-5.46 3.812-6.22 7.806-7.17 12.862-1.05 5.6-2.25 11.946-10.22 17.512-7.97 5.567-14.9 4.89-21.01 4.294-5.52-.54-9.87-.966-15.33 2.847-1.79 1.246-4.35.89-5.73-.797-1.37-1.686-1.04-4.065.74-5.311 7.97-5.566 14.9-4.889 21.01-4.293 5.52.539 9.88.965 15.34-2.847 5.46-3.813 6.21-7.807 7.16-12.862 1.05-5.6 2.25-11.947 10.22-17.513 7.97-5.565 14.9-4.888 21.01-4.291 5.52.539 9.87.965 15.33-2.846 5.46-3.813 6.21-7.807 7.17-12.863 1.05-5.6 2.24-11.946 10.22-17.512 7.97-5.567 14.89-4.89 21.01-4.293 5.51.539 9.87.965 15.33-2.848 5.46-3.813 6.21-7.806 7.17-12.862 1.05-5.6 2.24-11.947 10.22-17.513 7.97-5.567 14.9-4.89 21.01-4.293 5.51.538 9.87.965 15.33-2.848 5.47-3.813 6.22-7.808 7.17-12.865 1.05-5.599 2.25-11.946 10.22-17.513 1.79-1.246 4.35-.889 5.73.797 1.37 1.687 1.04 4.064-.74 5.311-5.47 3.813-6.22 7.807-7.17 12.864-1.05 5.6-2.25 11.946-10.22 17.514z"/><path d="M1503.75 63.163c-7.97 5.566-14.9 4.89-21.01 4.293-5.52-.54-9.88-.965-15.34 2.848-5.46 3.812-6.21 7.806-7.16 12.863-1.05 5.6-2.25 11.946-10.22 17.513-7.97 5.566-14.9 4.889-21.01 4.293-5.52-.54-9.88-.966-15.34 2.847-5.46 3.812-6.21 7.806-7.16 12.862-1.05 5.6-2.25 11.946-10.22 17.513-7.97 5.565-14.9 4.888-21.01 4.291-5.52-.54-9.87-.966-15.33 2.846-5.46 3.812-6.21 7.806-7.17 12.863-1.05 5.599-2.24 11.946-10.22 17.512-7.97 5.566-14.89 4.89-21.01 4.293-5.51-.539-9.87-.965-15.33 2.847-1.79 1.246-4.35.89-5.73-.797-1.37-1.686-1.04-4.064.74-5.31 7.97-5.566 14.9-4.89 21.01-4.294 5.52.54 9.88.965 15.34-2.847 5.46-3.812 6.21-7.806 7.16-12.862 1.06-5.6 2.25-11.946 10.22-17.512 7.97-5.566 14.9-4.889 21.01-4.292 5.52.54 9.87.966 15.33-2.846 5.46-3.813 6.22-7.807 7.17-12.863 1.05-5.599 2.25-11.946 10.22-17.512 7.97-5.566 14.9-4.89 21.01-4.293 5.51.54 9.87.965 15.33-2.847 5.46-3.813 6.22-7.807 7.17-12.863 1.05-5.6 2.25-11.947 10.22-17.513 7.97-5.566 14.9-4.89 21.01-4.293 5.52.539 9.87.965 15.34-2.848 5.46-3.813 6.21-7.807 7.16-12.864 1.05-5.6 2.25-11.947 10.22-17.514 1.79-1.246 4.35-.889 5.73.797 1.37 1.687 1.04 4.065-.74 5.31-5.46 3.814-6.22 7.808-7.17 12.866-1.05 5.6-2.25 11.946-10.22 17.513zm21.17 25.964c-7.97 5.567-14.9 4.89-21.01 4.294-5.52-.54-9.87-.966-15.33 2.847-5.47 3.813-6.22 7.807-7.17 12.864-1.05 5.599-2.25 11.946-10.22 17.512-7.97 5.566-14.9 4.89-21.01 4.293-5.52-.539-9.88-.965-15.34 2.847-5.46 3.813-6.21 7.806-7.16 12.863-1.05 5.599-2.25 11.946-10.22 17.512-7.97 5.566-14.9 4.889-21.01 4.292-5.51-.54-9.87-.966-15.33 2.846-5.46 3.812-6.21 7.806-7.16 12.862-1.06 5.599-2.25 11.946-10.22 17.512-7.98 5.566-14.9 4.89-21.01 4.294-5.52-.54-9.88-.966-15.34 2.847-1.79 1.246-4.35.889-5.73-.797-1.37-1.687-1.04-4.065.74-5.311 7.98-5.566 14.9-4.89 21.01-4.293 5.52.539 9.88.965 15.34-2.848 5.46-3.812 6.21-7.806 7.16-12.862 1.06-5.599 2.25-11.946 10.22-17.512 7.97-5.566 14.9-4.888 21.01-4.291 5.52.539 9.88.965 15.34-2.847 5.46-3.812 6.21-7.806 7.16-12.862 1.05-5.6 2.25-11.946 10.22-17.512 7.97-5.567 14.9-4.89 21.01-4.293 5.52.539 9.88.964 15.34-2.848 5.46-3.813 6.21-7.807 7.16-12.862 1.05-5.601 2.25-11.947 10.22-17.514 7.97-5.566 14.9-4.89 21.01-4.293 5.52.54 9.88.965 15.34-2.847 5.46-3.814 6.21-7.808 7.16-12.865 1.06-5.6 2.25-11.947 10.23-17.513 1.78-1.247 4.34-.89 5.72.797s1.04 4.064-.74 5.31c-5.46 3.814-6.21 7.808-7.17 12.865-1.05 5.6-2.24 11.946-10.22 17.513zm21.18 25.965c-7.98 5.566-14.9 4.89-21.01 4.293-5.52-.539-9.88-.965-15.34 2.848-5.46 3.813-6.21 7.807-7.17 12.863-1.05 5.6-2.24 11.947-10.22 17.513-7.97 5.566-14.89 4.89-21.01 4.293-5.51-.539-9.87-.965-15.33 2.847-5.46 3.813-6.21 7.806-7.17 12.862-1.05 5.6-2.24 11.947-10.22 17.513-7.97 5.566-14.89 4.889-21 4.291-5.52-.539-9.88-.965-15.34 2.847-5.46 3.812-6.21 7.806-7.16 12.862-1.05 5.599-2.25 11.946-10.22 17.512-7.97 5.566-14.9 4.89-21.01 4.293-5.52-.539-9.88-.965-15.34 2.848-1.78 1.246-4.35.889-5.72-.797-1.38-1.687-1.05-4.065.74-5.311 7.97-5.566 14.9-4.89 21.01-4.293 5.51.539 9.87.965 15.33-2.848 5.46-3.812 6.22-7.806 7.17-12.862 1.05-5.599 2.24-11.946 10.22-17.512 7.97-5.566 14.89-4.889 21-4.291 5.52.539 9.88.965 15.34-2.847 5.46-3.812 6.21-7.806 7.16-12.863 1.06-5.599 2.25-11.945 10.22-17.511 7.97-5.567 14.9-4.89 21.01-4.294 5.52.54 9.88.965 15.34-2.847 5.46-3.813 6.21-7.807 7.16-12.863 1.06-5.6 2.25-11.946 10.22-17.513 7.98-5.566 14.9-4.89 21.01-4.293 5.52.539 9.88.965 15.34-2.847 5.46-3.814 6.21-7.808 7.17-12.865 1.05-5.6 2.25-11.947 10.22-17.514 1.78-1.245 4.35-.889 5.72.798 1.38 1.686 1.05 4.064-.74 5.31-5.46 3.814-6.21 7.808-7.16 12.865-1.06 5.6-2.25 11.946-10.22 17.513zm21.17 25.965c-7.97 5.566-14.9 4.889-21.01 4.293-5.52-.539-9.88-.965-15.34 2.847-5.46 3.813-6.21 7.807-7.16 12.864-1.06 5.599-2.25 11.946-10.22 17.512-7.98 5.567-14.9 4.89-21.01 4.293-5.52-.539-9.88-.965-15.34 2.848-5.46 3.812-6.21 7.806-7.16 12.862-1.06 5.599-2.25 11.946-10.22 17.512-7.97 5.566-14.9 4.889-21.01 4.291-5.52-.539-9.88-.965-15.34 2.847-5.46 3.812-6.21 7.806-7.16 12.862-1.05 5.6-2.25 11.946-10.22 17.512-7.97 5.567-14.9 4.891-21.01 4.293-5.52-.538-9.88-.964-15.34 2.848-1.78 1.246-4.34.889-5.72-.797-1.38-1.687-1.05-4.065.74-5.311 7.97-5.566 14.9-4.889 21.01-4.293 5.52.54 9.88.965 15.34-2.847 5.46-3.813 6.21-7.806 7.16-12.863 1.05-5.599 2.25-11.946 10.22-17.512 7.97-5.565 14.9-4.889 21.01-4.291 5.51.539 9.87.966 15.33-2.846 5.46-3.813 6.21-7.807 7.16-12.863 1.06-5.6 2.25-11.946 10.22-17.512 7.98-5.567 14.9-4.89 21.01-4.293 5.52.539 9.88.965 15.34-2.847 5.46-3.813 6.21-7.807 7.16-12.864 1.06-5.599 2.25-11.946 10.23-17.512 7.97-5.567 14.89-4.89 21.01-4.294 5.51.54 9.87.966 15.33-2.847 5.46-3.813 6.22-7.808 7.17-12.865 1.05-5.599 2.25-11.946 10.22-17.513 1.79-1.246 4.35-.89 5.72.797 1.38 1.686 1.05 4.065-.73 5.311-5.47 3.813-6.22 7.807-7.17 12.864-1.05 5.6-2.25 11.947-10.22 17.514zm21.17 25.964c-7.97 5.566-14.9 4.89-21.01 4.293-5.52-.539-9.88-.965-15.34 2.848-5.46 3.812-6.21 7.807-7.16 12.863-1.05 5.6-2.25 11.946-10.22 17.513-7.97 5.566-14.9 4.889-21.01 4.292-5.52-.539-9.88-.965-15.34 2.848-5.46 3.812-6.21 7.806-7.16 12.862-1.05 5.6-2.25 11.946-10.22 17.513-7.97 5.565-14.9 4.888-21.01 4.291-5.52-.54-9.87-.966-15.33 2.846-5.46 3.813-6.21 7.806-7.17 12.862-1.05 5.6-2.24 11.947-10.22 17.513-7.97 5.566-14.89 4.89-21.01 4.293-5.51-.539-9.87-.965-15.33 2.847-1.79 1.246-4.35.889-5.73-.797-1.37-1.687-1.04-4.064.74-5.31 7.97-5.566 14.9-4.89 21.01-4.293 5.52.539 9.88.965 15.34-2.848 5.46-3.812 6.21-7.806 7.16-12.863 1.06-5.599 2.25-11.945 10.22-17.511 7.97-5.566 14.9-4.889 21.01-4.292 5.52.539 9.87.966 15.33-2.846 5.46-3.813 6.22-7.807 7.17-12.863 1.05-5.599 2.25-11.946 10.22-17.512 7.97-5.566 14.9-4.89 21.01-4.293 5.51.539 9.87.965 15.33-2.847 5.46-3.813 6.22-7.807 7.17-12.863 1.05-5.6 2.25-11.947 10.22-17.513 7.97-5.566 14.9-4.89 21.01-4.294 5.52.54 9.87.966 15.34-2.847 5.46-3.813 6.21-7.807 7.16-12.865 1.05-5.599 2.25-11.946 10.22-17.513 1.79-1.246 4.35-.89 5.73.797 1.37 1.687 1.04 4.065-.74 5.311-5.46 3.813-6.22 7.807-7.17 12.865-1.05 5.599-2.25 11.946-10.22 17.513zm-945.689 497.66c-7.972 5.566-14.899 4.89-21.01 4.293-5.518-.539-9.877-.965-15.338 2.848-5.46 3.812-6.212 7.807-7.164 12.863-1.053 5.6-2.248 11.946-10.22 17.513-7.972 5.566-14.898 4.889-21.009 4.293-5.519-.54-9.877-.966-15.338 2.847-5.46 3.812-6.211 7.806-7.162 12.862-1.054 5.6-2.248 11.946-10.22 17.513-7.972 5.565-14.897 4.888-21.008 4.291-5.517-.539-9.876-.966-15.335 2.846-5.46 3.813-6.211 7.806-7.163 12.863-1.053 5.599-2.248 11.946-10.219 17.512-7.973 5.566-14.899 4.89-21.01 4.293-5.519-.539-9.877-.965-15.338 2.847-1.784 1.246-4.347.89-5.724-.797-1.376-1.686-1.045-4.064.739-5.31 7.972-5.566 14.899-4.89 21.01-4.293 5.518.539 9.877.965 15.338-2.848 5.46-3.812 6.211-7.806 7.162-12.862 1.054-5.6 2.248-11.946 10.22-17.512 7.971-5.566 14.897-4.889 21.008-4.292 5.518.54 9.875.966 15.335-2.846 5.46-3.813 6.211-7.807 7.163-12.862 1.053-5.6 2.248-11.947 10.22-17.513 7.972-5.566 14.898-4.89 21.009-4.292 5.518.538 9.877.964 15.337-2.848 5.461-3.813 6.212-7.807 7.164-12.863 1.054-5.6 2.248-11.947 10.221-17.513 7.972-5.566 14.898-4.89 21.01-4.293 5.518.539 9.876.965 15.337-2.848 5.461-3.813 6.213-7.807 7.165-12.865 1.054-5.599 2.25-11.946 10.222-17.513 1.785-1.246 4.349-.889 5.725.797 1.376 1.687 1.045 4.065-.74 5.311-5.461 3.813-6.213 7.807-7.165 12.865-1.054 5.599-2.249 11.946-10.222 17.513zm21.172 25.964c-7.972 5.566-14.898 4.89-21.009 4.293-5.519-.539-9.878-.965-15.338 2.848-5.461 3.813-6.212 7.807-7.164 12.864-1.054 5.599-2.248 11.946-10.221 17.512-7.972 5.566-14.898 4.89-21.009 4.293-5.518-.539-9.877-.965-15.337 2.847-5.46 3.813-6.211 7.806-7.163 12.863-1.053 5.599-2.248 11.946-10.22 17.512-7.971 5.566-14.896 4.889-21.007 4.292-5.518-.54-9.876-.966-15.336 2.846-5.46 3.812-6.211 7.806-7.162 12.862-1.054 5.599-2.248 11.946-10.22 17.512-7.972 5.566-14.899 4.89-21.01 4.293-5.518-.539-9.877-.965-15.337 2.848-1.785 1.246-4.348.889-5.725-.797-1.376-1.687-1.045-4.065.74-5.311 7.972-5.566 14.898-4.89 21.009-4.293 5.518.539 9.878.965 15.338-2.848 5.46-3.812 6.211-7.806 7.163-12.862 1.053-5.599 2.248-11.946 10.219-17.512 7.971-5.566 14.898-4.889 21.008-4.292 5.518.54 9.876.966 15.335-2.846 5.461-3.812 6.212-7.806 7.163-12.862 1.054-5.6 2.248-11.946 10.22-17.512 7.972-5.567 14.898-4.89 21.01-4.293 5.517.539 9.877.964 15.337-2.848 5.461-3.813 6.212-7.807 7.163-12.863 1.054-5.6 2.249-11.946 10.221-17.513 7.972-5.566 14.899-4.89 21.01-4.293 5.518.539 9.877.965 15.337-2.847 5.462-3.814 6.213-7.808 7.166-12.865 1.054-5.6 2.249-11.947 10.222-17.513 1.784-1.246 4.348-.889 5.724.797 1.377 1.687 1.045 4.064-.739 5.31-5.462 3.814-6.214 7.808-7.166 12.865-1.054 5.6-2.249 11.946-10.222 17.513zm21.173 25.965c-7.972 5.566-14.898 4.89-21.01 4.293-5.518-.539-9.877-.965-15.337 2.848-5.461 3.813-6.213 7.807-7.165 12.863-1.053 5.6-2.247 11.946-10.22 17.513-7.972 5.566-14.898 4.89-21.01 4.292-5.517-.538-9.876-.964-15.336 2.848-5.46 3.812-6.211 7.806-7.163 12.862-1.053 5.6-2.248 11.947-10.22 17.513-7.971 5.566-14.897 4.889-21.008 4.291-5.517-.539-9.876-.965-15.335 2.847-5.46 3.812-6.211 7.806-7.163 12.862-1.053 5.599-2.248 11.946-10.219 17.512-7.973 5.566-14.899 4.89-21.011 4.293-5.517-.539-9.876-.965-15.336 2.848-1.785 1.246-4.349.889-5.725-.798-1.377-1.686-1.045-4.064.74-5.31 7.971-5.566 14.898-4.89 21.009-4.293 5.518.539 9.877.965 15.338-2.848 5.46-3.812 6.211-7.806 7.162-12.862 1.054-5.6 2.248-11.946 10.22-17.512 7.971-5.566 14.897-4.889 21.008-4.292 5.518.54 9.876.966 15.335-2.846 5.46-3.812 6.212-7.806 7.163-12.863 1.053-5.599 2.248-11.946 10.22-17.512 7.972-5.566 14.898-4.889 21.009-4.293 5.518.54 9.877.965 15.337-2.847 5.461-3.813 6.213-7.807 7.164-12.863 1.054-5.6 2.249-11.946 10.221-17.513 7.972-5.566 14.898-4.89 21.01-4.293 5.518.539 9.877.965 15.337-2.847 5.462-3.814 6.213-7.808 7.166-12.865 1.054-5.6 2.249-11.947 10.222-17.514 1.784-1.246 4.347-.889 5.724.798 1.376 1.686 1.045 4.064-.74 5.31-5.461 3.813-6.213 7.808-7.165 12.865-1.054 5.6-2.249 11.946-10.222 17.513zm21.172 25.965c-7.971 5.566-14.898 4.889-21.009 4.293-5.518-.54-9.877-.965-15.338 2.847-5.46 3.813-6.212 7.807-7.164 12.863-1.053 5.6-2.248 11.947-10.22 17.513-7.972 5.567-14.898 4.89-21.01 4.293-5.518-.539-9.876-.965-15.337 2.847-5.46 3.813-6.211 7.807-7.163 12.862-1.053 5.6-2.247 11.947-10.22 17.513-7.971 5.566-14.896 4.889-21.007 4.291-5.517-.539-9.876-.965-15.335 2.847-5.46 3.812-6.212 7.806-7.163 12.862-1.053 5.6-2.248 11.946-10.22 17.512-7.972 5.567-14.898 4.89-21.01 4.293-5.518-.539-9.877-.964-15.337 2.848-1.784 1.246-4.348.889-5.724-.797-1.377-1.687-1.045-4.065.739-5.311 7.972-5.566 14.898-4.889 21.01-4.293 5.518.539 9.877.965 15.337-2.847 5.46-3.813 6.212-7.807 7.163-12.863 1.053-5.599 2.248-11.946 10.22-17.512 7.971-5.566 14.897-4.889 21.008-4.291 5.517.539 9.875.965 15.335-2.847 5.46-3.812 6.211-7.806 7.162-12.862 1.054-5.6 2.249-11.946 10.22-17.512 7.973-5.567 14.898-4.89 21.01-4.293 5.518.539 9.877.965 15.337-2.848 5.461-3.813 6.212-7.806 7.163-12.863 1.055-5.599 2.249-11.946 10.221-17.512 7.973-5.567 14.899-4.891 21.01-4.294 5.519.539 9.877.965 15.338-2.847 5.461-3.814 6.213-7.808 7.165-12.865 1.054-5.6 2.249-11.947 10.222-17.513 1.785-1.246 4.348-.89 5.725.797 1.376 1.686 1.045 4.064-.74 5.31-5.461 3.814-6.213 7.808-7.165 12.865-1.055 5.6-2.249 11.946-10.223 17.514zm21.173 25.964c-7.972 5.566-14.899 4.89-21.01 4.293-5.518-.539-9.877-.965-15.338 2.848-5.46 3.812-6.212 7.807-7.164 12.863-1.053 5.6-2.248 11.946-10.22 17.513-7.972 5.566-14.898 4.889-21.01 4.292-5.518-.539-9.876-.965-15.337 2.848-5.46 3.812-6.211 7.806-7.162 12.862-1.054 5.6-2.248 11.946-10.22 17.513-7.972 5.565-14.897 4.888-21.008 4.291-5.517-.54-9.876-.966-15.335 2.846-5.46 3.812-6.211 7.806-7.163 12.862-1.053 5.6-2.248 11.947-10.22 17.513-7.972 5.566-14.898 4.89-21.01 4.293-5.518-.539-9.877-.965-15.337 2.847-1.784 1.246-4.348.889-5.724-.797-1.377-1.687-1.045-4.064.739-5.31 7.972-5.567 14.899-4.89 21.01-4.294 5.518.54 9.877.965 15.338-2.847 5.46-3.812 6.211-7.806 7.162-12.863 1.054-5.599 2.248-11.945 10.22-17.512 7.971-5.565 14.897-4.888 21.008-4.291 5.517.539 9.875.966 15.335-2.846 5.46-3.813 6.211-7.807 7.163-12.863 1.053-5.599 2.248-11.946 10.219-17.512 7.973-5.566 14.899-4.89 21.01-4.293 5.518.539 9.877.965 15.337-2.847 5.461-3.813 6.212-7.807 7.164-12.863 1.054-5.6 2.248-11.947 10.221-17.513 7.972-5.566 14.898-4.89 21.009-4.294 5.519.54 9.877.966 15.338-2.847 5.461-3.813 6.213-7.807 7.165-12.865 1.054-5.599 2.25-11.946 10.222-17.513 1.785-1.246 4.348-.89 5.725.797 1.376 1.687 1.045 4.065-.74 5.311-5.461 3.813-6.213 7.807-7.165 12.865-1.054 5.599-2.249 11.946-10.222 17.513zm339.589 3.26c-7.98 5.566-14.9 4.89-21.01 4.293-5.52-.539-9.88-.965-15.34 2.848-5.46 3.812-6.21 7.806-7.17 12.863-1.05 5.599-2.24 11.946-10.22 17.512-7.97 5.567-14.895 4.89-21.006 4.293-5.518-.539-9.877-.965-15.337 2.848-5.46 3.812-6.211 7.806-7.163 12.862-1.053 5.599-2.248 11.946-10.22 17.512-7.971 5.566-14.896 4.889-21.007 4.292-5.518-.54-9.876-.966-15.336 2.846-5.46 3.812-6.211 7.806-7.162 12.863-1.054 5.599-2.248 11.945-10.22 17.511-7.972 5.567-14.899 4.891-21.01 4.294-5.518-.539-9.877-.966-15.337 2.847-1.785 1.246-4.348.89-5.725-.797-1.376-1.686-1.045-4.065.74-5.311 7.972-5.566 14.898-4.889 21.009-4.293 5.518.54 9.878.965 15.338-2.847 5.46-3.813 6.211-7.806 7.163-12.862 1.053-5.6 2.248-11.947 10.219-17.513 7.972-5.565 14.898-4.888 21.008-4.291 5.518.54 9.876.966 15.335-2.846 5.461-3.813 6.212-7.807 7.164-12.863 1.053-5.599 2.247-11.946 10.219-17.512 7.972-5.566 14.898-4.89 21.01-4.293 5.518.539 9.878.965 15.338-2.847 5.46-3.813 6.21-7.807 7.16-12.863 1.06-5.6 2.25-11.947 10.22-17.513 7.98-5.567 14.9-4.89 21.01-4.293 5.52.539 9.88.965 15.34-2.848 5.46-3.813 6.21-7.808 7.17-12.865 1.05-5.599 2.25-11.946 10.22-17.513 1.78-1.246 4.35-.889 5.72.797 1.38 1.687 1.05 4.065-.74 5.311-5.46 3.813-6.21 7.807-7.16 12.864-1.06 5.6-2.25 11.947-10.22 17.514zm21.17 25.964c-7.97 5.566-14.9 4.89-21.01 4.293-5.52-.539-9.88-.965-15.34 2.848-5.46 3.812-6.21 7.807-7.16 12.863-1.06 5.6-2.25 11.946-10.22 17.513-7.98 5.566-14.9 4.889-21.01 4.293-5.52-.539-9.88-.966-15.341 2.847-5.46 3.812-6.211 7.806-7.162 12.863-1.054 5.599-2.248 11.945-10.221 17.512-7.971 5.565-14.896 4.888-21.007 4.291-5.517-.539-9.876-.965-15.335 2.846-5.46 3.813-6.212 7.807-7.163 12.863-1.053 5.599-2.248 11.946-10.22 17.512-7.972 5.566-14.898 4.89-21.01 4.293-5.518-.539-9.876-.965-15.337 2.848-1.784 1.246-4.348.889-5.724-.798-1.377-1.686-1.045-4.064.739-5.31 7.972-5.566 14.898-4.89 21.01-4.293 5.518.539 9.877.965 15.337-2.848 5.46-3.812 6.212-7.806 7.163-12.862 1.053-5.6 2.248-11.946 10.22-17.512 7.971-5.566 14.897-4.889 21.008-4.292 5.517.54 9.875.966 15.334-2.846 5.461-3.813 6.212-7.806 7.164-12.862 1.053-5.6 2.248-11.947 10.219-17.513 7.976-5.566 14.896-4.889 21.006-4.292 5.52.539 9.88.964 15.34-2.848 5.46-3.813 6.21-7.807 7.16-12.863 1.06-5.6 2.25-11.946 10.23-17.513 7.97-5.566 14.89-4.89 21.01-4.293 5.51.539 9.87.965 15.33-2.848 5.46-3.813 6.22-7.807 7.17-12.864 1.05-5.6 2.25-11.947 10.22-17.514 1.78-1.246 4.35-.889 5.72.797 1.38 1.687 1.05 4.065-.74 5.311-5.46 3.813-6.21 7.808-7.16 12.865-1.05 5.599-2.25 11.946-10.22 17.513zm21.17 25.965c-7.97 5.566-14.9 4.89-21.01 4.293-5.52-.539-9.88-.965-15.34 2.848-5.46 3.812-6.21 7.807-7.16 12.863-1.05 5.6-2.25 11.946-10.22 17.513-7.97 5.566-14.9 4.889-21.01 4.292-5.52-.539-9.88-.965-15.34 2.848-5.46 3.812-6.21 7.806-7.16 12.862-1.05 5.6-2.25 11.946-10.22 17.513-7.972 5.565-14.897 4.888-21.008 4.291-5.518-.539-9.876-.965-15.336 2.846-5.46 3.813-6.211 7.807-7.162 12.862-1.053 5.6-2.248 11.947-10.22 17.513-7.972 5.566-14.898 4.89-21.01 4.293-5.518-.539-9.877-.965-15.337 2.847-1.785 1.247-4.348.89-5.724-.797-1.377-1.686-1.045-4.064.739-5.31 7.972-5.566 14.898-4.89 21.009-4.293 5.519.539 9.878.965 15.338-2.848 5.46-3.812 6.211-7.806 7.163-12.862 1.053-5.6 2.248-11.946 10.22-17.512 7.971-5.566 14.897-4.889 21.008-4.292 5.517.539 9.875.966 15.334-2.846 5.456-3.813 6.216-7.806 7.166-12.863 1.05-5.599 2.25-11.946 10.22-17.512 7.97-5.566 14.9-4.889 21.01-4.293 5.51.54 9.87.965 15.33-2.847 5.46-3.813 6.22-7.807 7.17-12.863 1.05-5.6 2.25-11.946 10.22-17.513 7.97-5.566 14.9-4.89 21.01-4.293 5.52.539 9.87.965 15.34-2.848 5.46-3.813 6.21-7.807 7.16-12.864 1.06-5.6 2.25-11.947 10.22-17.514 1.79-1.246 4.35-.889 5.73.797 1.37 1.687 1.04 4.065-.74 5.311-5.46 3.813-6.22 7.808-7.17 12.865-1.05 5.599-2.25 11.946-10.22 17.513z"/></g></svg>